<?xml version="1.0" encoding="UTF-8" standalone="no"?>
<!-- Uploaded to: SVG Repo, www.svgrepo.com, Generator: SVG Repo Mixer Tools -->

<svg
   fill="#000000"
   version="1.1"
   id="Capa_1"
   width="800px"
   height="800px"
   viewBox="0 0 46.002 46.002"
   xml:space="preserve"
   sodipodi:docname="earth-globe-with-continents-maps.svg"
   inkscape:version="1.3.2 (1:1.3.2+202311252150+091e20ef0f)"
   xmlns:inkscape="http://www.inkscape.org/namespaces/inkscape"
   xmlns:sodipodi="http://sodipodi.sourceforge.net/DTD/sodipodi-0.dtd"
   xmlns="http://www.w3.org/2000/svg"
   xmlns:svg="http://www.w3.org/2000/svg"><defs
   id="defs1" /><sodipodi:namedview
   id="namedview1"
   pagecolor="#505050"
   bordercolor="#eeeeee"
   borderopacity="1"
   inkscape:showpageshadow="0"
   inkscape:pageopacity="0"
   inkscape:pagecheckerboard="0"
   inkscape:deskcolor="#d1d1d1"
   inkscape:zoom="1.015"
   inkscape:cx="399.50739"
   inkscape:cy="400"
   inkscape:window-width="1920"
   inkscape:window-height="1009"
   inkscape:window-x="0"
   inkscape:window-y="0"
   inkscape:window-maximized="1"
   inkscape:current-layer="Capa_1" />
<g
   id="g1"
   transform="matrix(1.0103848,0,0,1,-0.47286007,0)">
	<path
   d="m 40.503,16.351 0.4,0.287 h 0.373 V 15.92 l 1.176,-0.114 1.117,0.832 h 1.836 L 45.534,16.52 C 45.35,15.901 45.143,15.293 44.911,14.697 l -1.198,0.02 -0.601,-0.66 -0.116,-1.061 -0.616,0.336 -0.33,1.297 -0.889,-0.946 -0.036,-0.894 -0.858,-0.739 -0.316,-0.315 h -0.995 l 0.313,0.887 1.198,0.668 0.208,0.221 -0.26,0.13 0.012,0.703 -0.584,0.244 -0.498,-0.109 -0.312,-0.441 0.811,0.043 0.219,-0.295 -1.795,-1.211 -0.138,-0.516 -0.729,0.66 -0.739,-0.152 -1.125,1.463 -0.222,0.573 -0.72,0.065 -1.065,0.007 -0.637,-0.298 -0.188,-1.265 0.229,-0.603 1.084,-0.237 1.182,0.237 0.145,-0.654 -0.502,-0.119 0.171,-1.019 1.19,-0.186 0.832,-1.175 0.859,-0.144 0.775,0.115 h 0.286 L 38.798,8.223 37.856,8.603 37.524,7.778 36.977,7.702 36.874,7.137 37.32,6.651 38.381,6.235 38.654,5.747 C 34.599,2.175 29.284,0 23.468,0 18.421,0 13.752,1.638 9.955,4.405 l 1.16,-0.009 0.517,0.286 0.974,0.21 0.076,0.383 1.549,0.057 -0.21,-0.497 -1.376,-0.039 0.324,-0.305 -0.113,-0.364 h -1.244 l 1.357,-1.013 h 1.3 l 0.611,0.842 1.014,0.057 0.611,-0.593 0.459,0.229 -0.842,0.822 c 0,0 -1.165,0.021 -1.108,0.021 0.057,0 0.096,0.802 0.096,0.802 L 16.523,5.255 16.676,4.874 17.65,4.816 17.765,4.243 17.192,4.146 17.383,3.63 l 0.439,-0.133 1.529,0.076 -0.843,0.765 0.136,0.592 0.879,0.134 -0.057,-1.07 0.841,-0.44 1.491,-0.172 2.159,0.956 V 5.16 L 24.645,5.332 24.3,5.982 H 23.325 L 23.036,6.727 20.811,6.202 22.562,5.269 21.895,4.702 20.385,4.893 20.253,5.03 20.248,5.028 20.225,5.06 19.79,5.512 l -0.719,0.059 0.057,0.358 0.251,0.104 -0.01,0.118 -0.585,0.083 -0.043,0.339 -0.559,0.029 -0.101,-0.674 -1.003,0.305 -2.05,1.2 0.23,0.845 0.573,0.374 1.146,0.158 v 1.303 l 0.53,-0.085 0.488,-1.018 1.219,-0.386 V 7.061 l 0.678,-0.512 1.639,0.387 -0.115,1.033 h 0.44 l 1.205,-0.592 0.058,1.356 0.877,0.535 -0.037,0.804 -0.84,0.286 0.057,0.266 1.013,0.461 -0.021,0.554 -0.293,0.025 c -0.001,-0.009 -0.003,-0.015 -0.003,-0.015 l -1.278,-0.394 -0.054,-0.41 h -10e-4 l 0.374,-0.257 v -0.374 l -0.402,-0.101 -0.1,0.345 -0.705,0.109 -0.07,-0.023 v 0.035 l -0.244,0.037 -0.199,-0.402 -0.23,-0.101 h -0.502 l -0.228,0.188 v 0.416 l 0.429,0.143 0.424,0.06 -0.095,0.042 -0.387,0.429 -0.17,-0.214 -0.374,-0.099 -1.019,0.958 0.133,0.109 -1.504,0.833 -1.415,1.472 -0.097,0.655 -1.418,0.932 -0.703,0.707 0.078,1.414 -0.975,-0.454 0.007,-0.827 -2.713,0.001 -1.405,0.711 -0.61,1.125 -0.242,0.892 0.395,0.865 1.107,0.135 1.759,-1.176 0.154,0.583 -0.537,1.014 1.339,0.229 0.134,2.068 1.835,0.312 1.166,-1.348 1.415,0.288 0.497,0.691 1.357,-0.08 0.038,-0.401 0.746,0.362 0.841,1.318 1.452,0.02 0.536,0.938 0.076,1.146 1.606,0.611 2.026,0.021 0.593,0.973 0.898,0.288 -0.172,0.805 -0.984,1.25 -0.287,2.769 -0.889,0.702 -1.318,-0.039 -0.439,0.764 0.326,1.436 -1.435,1.834 -0.458,0.842 -1.367,0.656 -0.899,0.137 -0.037,0.381 0.631,0.181 -0.076,0.411 -0.565,0.544 0.343,0.433 0.68,0.019 -0.038,0.524 -0.181,0.517 -0.058,0.42 1.006,0.847 -0.134,0.44 -1.369,-0.026 -1.362,-1.188 -1.061,-1.865 0.148,-1.8 -0.803,-1.071 0.325,-1.815 -0.477,-0.133 V 32.5 c 0,0 -1.338,-1.014 -1.415,-1.014 -0.077,0 -0.708,-0.172 -0.708,-0.172 L 14.403,30.57 12.664,28.39 12.836,27.607 12.893,26.326 14.097,25.484 13.925,24.05 12.167,23.918 10.791,22.35 9.816,22.08 9.186,21.964 9.262,21.391 8.459,21.277 v 0.325 L 6.451,21.101 5.643,19.865 5.972,19.266 4.701,17.411 4.483,16.054 H 3.967 L 4.138,17.372 5.017,18.729 4.921,19.265 4.176,19.15 3.259,17.587 V 15.768 L 2.303,15.309 V 14 c -1.18,2.766 -1.835,5.808 -1.835,9.001 0,12.683 10.318,23.001 23.001,23.001 7.19,0 13.618,-3.318 17.839,-8.502 H 40.549 V 35.971 L 39.671,34.789 V 32.95 l -0.67,-0.668 -0.059,-0.765 0.852,-1.625 -1.613,-2.849 0.189,-1.933 -1.452,-0.15 -0.535,-0.535 h -0.976 l -0.496,0.458 H 33.19 l -0.058,0.153 h -0.957 l -2.196,-2.503 0.018,-1.95 0.363,-0.133 0.135,-0.746 h -0.516 l -0.211,-0.783 2.541,-1.834 v -1.3 l 1.244,-0.691 0.504,0.05 h 1.023 l 0.801,-0.43 2.581,-0.201 v 1.319 z m -6.452,-8.201 0.21,-0.324 0.756,-0.153 0.189,0.918 0.402,0.649 0.267,0.307 0.487,0.19 -0.459,0.546 -0.889,0.085 H 34.346 L 34.421,9.575 34.977,9.46 34.93,9.087 34.412,8.762 34.05,8.514 34.051,8.15 Z m -1.241,1.434 0.459,-0.736 0.619,-0.144 0.44,0.191 -0.04,0.497 -0.946,0.669 H 32.808 V 9.584 Z m -12.497,2.829 -0.479,0.04 0.026,-0.333 0.214,-0.267 0.288,0.226 z m 1.679,-0.588 -0.327,0.028 -0.066,0.316 -0.252,0.157 -0.404,0.034 c -0.014,-0.095 -0.022,-0.167 -0.022,-0.167 h -0.157 v -0.34 h 0.659 l 0.136,-0.351 0.262,-0.005 0.299,0.062 z"
   id="path1" />
</g>
</svg>
