<svg xmlns="http://www.w3.org/2000/svg" xmlns:xlink="http://www.w3.org/1999/xlink" width="1000" zoomAndPan="magnify" viewBox="0 0 750 149.999998" height="200" preserveAspectRatio="xMidYMid meet" version="1.0"><defs><g/><clipPath id="1e0cb586d6"><path d="M 34.789062 3.410156 L 133.789062 3.410156 L 133.789062 102.410156 L 34.789062 102.410156 Z M 34.789062 3.410156 " clip-rule="nonzero"/></clipPath><clipPath id="cb1c01d54c"><path d="M 84.382812 3.410156 C 56.992188 3.410156 34.789062 25.617188 34.789062 53.003906 C 34.789062 80.394531 56.992188 102.597656 84.382812 102.597656 C 111.773438 102.597656 133.976562 80.394531 133.976562 53.003906 C 133.976562 25.617188 111.773438 3.410156 84.382812 3.410156 Z M 84.382812 3.410156 " clip-rule="nonzero"/></clipPath><clipPath id="07e59d0a2e"><path d="M 62.226562 26.433594 L 106.476562 26.433594 L 106.476562 79.683594 L 62.226562 79.683594 Z M 62.226562 26.433594 " clip-rule="nonzero"/></clipPath><clipPath id="ea5aff0313"><path d="M 215.410156 1.886719 L 314.410156 1.886719 L 314.410156 100.886719 L 215.410156 100.886719 Z M 215.410156 1.886719 " clip-rule="nonzero"/></clipPath><clipPath id="c5008491cb"><path d="M 265.003906 1.886719 C 237.613281 1.886719 215.410156 24.089844 215.410156 51.480469 C 215.410156 78.867188 237.613281 101.074219 265.003906 101.074219 C 292.390625 101.074219 314.597656 78.867188 314.597656 51.480469 C 314.597656 24.089844 292.390625 1.886719 265.003906 1.886719 Z M 265.003906 1.886719 " clip-rule="nonzero"/></clipPath><clipPath id="d778dcf142"><path d="M 244.863281 25.492188 L 285.363281 25.492188 L 285.363281 77.242188 L 244.863281 77.242188 Z M 244.863281 25.492188 " clip-rule="nonzero"/></clipPath><clipPath id="b1068c9863"><path d="M 396.347656 3.410156 L 495.347656 3.410156 L 495.347656 102.410156 L 396.347656 102.410156 Z M 396.347656 3.410156 " clip-rule="nonzero"/></clipPath><clipPath id="2137e7abee"><path d="M 445.941406 3.410156 C 418.554688 3.410156 396.347656 25.617188 396.347656 53.003906 C 396.347656 80.394531 418.554688 102.597656 445.941406 102.597656 C 473.332031 102.597656 495.535156 80.394531 495.535156 53.003906 C 495.535156 25.617188 473.332031 3.410156 445.941406 3.410156 Z M 445.941406 3.410156 " clip-rule="nonzero"/></clipPath><clipPath id="aaa021f08f"><path d="M 419.074219 24.144531 L 474.410156 24.144531 L 474.410156 79.570312 L 419.074219 79.570312 Z M 419.074219 24.144531 " clip-rule="nonzero"/></clipPath><clipPath id="9ea4c90bb2"><path d="M 413.96875 56 L 430 56 L 430 73 L 413.96875 73 Z M 413.96875 56 " clip-rule="nonzero"/></clipPath><clipPath id="3477057a74"><path d="M 453.410156 19.589844 L 477.71875 19.589844 L 477.71875 43.929688 L 453.410156 43.929688 Z M 453.410156 19.589844 " clip-rule="nonzero"/></clipPath><clipPath id="1fbba853e5"><path d="M 577.289062 1.886719 L 676.289062 1.886719 L 676.289062 100.886719 L 577.289062 100.886719 Z M 577.289062 1.886719 " clip-rule="nonzero"/></clipPath><clipPath id="3902827125"><path d="M 626.882812 1.886719 C 599.492188 1.886719 577.289062 24.089844 577.289062 51.480469 C 577.289062 78.867188 599.492188 101.074219 626.882812 101.074219 C 654.273438 101.074219 676.476562 78.867188 676.476562 51.480469 C 676.476562 24.089844 654.273438 1.886719 626.882812 1.886719 Z M 626.882812 1.886719 " clip-rule="nonzero"/></clipPath><clipPath id="cb9e813656"><path d="M 596.257812 28 L 657.757812 28 L 657.757812 75.402344 L 596.257812 75.402344 Z M 596.257812 28 " clip-rule="nonzero"/></clipPath></defs><g clip-path="url(#1e0cb586d6)"><g clip-path="url(#cb1c01d54c)"><path stroke-linecap="butt" transform="matrix(0.75, 0, 0, 0.75, 34.78856, 3.411471)" fill="none" stroke-linejoin="miter" d="M 66.125674 -0.00175351 C 29.604838 -0.00175351 0.000669919 29.607623 0.000669919 66.12325 C 0.000669919 102.644086 29.604838 132.248254 66.125674 132.248254 C 102.646509 132.248254 132.250678 102.644086 132.250678 66.12325 C 132.250678 29.607623 102.646509 -0.00175351 66.125674 -0.00175351 Z M 66.125674 -0.00175351 " stroke="#000000" stroke-width="8" stroke-opacity="1" stroke-miterlimit="4"/></g></g><g clip-path="url(#07e59d0a2e)"><path fill="#010101" d="M 105.335938 67.886719 L 90.980469 44.183594 L 90.980469 32.902344 C 92.269531 32.441406 93.191406 31.210938 93.191406 29.761719 C 93.191406 27.925781 91.707031 26.433594 89.875 26.433594 L 78.820312 26.433594 C 76.988281 26.433594 75.503906 27.925781 75.503906 29.761719 C 75.503906 31.210938 76.425781 32.441406 77.714844 32.902344 L 77.714844 44.183594 L 63.359375 67.886719 C 62.644531 69.0625 62.234375 70.441406 62.234375 71.917969 C 62.234375 76.207031 65.699219 79.683594 69.972656 79.683594 L 98.722656 79.683594 C 102.996094 79.683594 106.460938 76.207031 106.460938 71.917969 C 106.460938 70.441406 106.050781 69.0625 105.335938 67.886719 Z M 78.820312 28.652344 L 89.875 28.652344 C 90.488281 28.652344 90.980469 29.152344 90.980469 29.761719 C 90.980469 30.371094 90.488281 30.871094 89.875 30.871094 L 78.820312 30.871094 C 78.210938 30.871094 77.714844 30.371094 77.714844 29.761719 C 77.714844 29.152344 78.210938 28.652344 78.820312 28.652344 Z M 79.605469 45.335938 L 79.925781 44.804688 L 79.925781 33.089844 L 88.773438 33.089844 L 88.773438 44.804688 L 89.09375 45.335938 L 98.542969 60.941406 C 97.816406 61.707031 96.992188 62.414062 96.070312 63.039062 C 94.183594 64.324219 92.339844 64.992188 90.523438 65.183594 C 86.503906 65.609375 82.605469 63.6875 78.570312 60.855469 C 76.582031 59.460938 74.464844 58.222656 72.273438 57.441406 Z M 79.605469 45.335938 " fill-opacity="1" fill-rule="nonzero"/></g><g clip-path="url(#ea5aff0313)"><g clip-path="url(#c5008491cb)"><path stroke-linecap="butt" transform="matrix(0.75, 0, 0, 0.75, 215.408679, 1.884862)" fill="none" stroke-linejoin="miter" d="M 66.126973 0.00247566 C 29.606138 0.00247566 0.00196929 29.606644 0.00196929 66.12748 C 0.00196929 102.643107 29.606138 132.252483 66.126973 132.252483 C 102.6426 132.252483 132.251977 102.643107 132.251977 66.12748 C 132.251977 29.606644 102.6426 0.00247566 66.126973 0.00247566 Z M 66.126973 0.00247566 " stroke="#000000" stroke-width="8" stroke-opacity="1" stroke-miterlimit="4"/></g></g><g clip-path="url(#d778dcf142)"><path fill="#000000" d="M 281.019531 45.488281 L 281.019531 41.242188 C 281.019531 32.558594 273.882812 25.492188 265.113281 25.492188 C 256.34375 25.492188 249.203125 32.558594 249.203125 41.242188 L 249.203125 45.488281 C 246.800781 45.554688 244.871094 47.492188 244.871094 49.886719 L 244.871094 72.832031 C 244.871094 73.121094 244.898438 73.410156 244.957031 73.691406 C 245.015625 73.976562 245.097656 74.253906 245.210938 74.519531 C 245.320312 74.785156 245.460938 75.039062 245.621094 75.28125 C 245.785156 75.523438 245.96875 75.746094 246.175781 75.949219 C 246.382812 76.152344 246.605469 76.335938 246.847656 76.496094 C 247.09375 76.660156 247.347656 76.792969 247.617188 76.90625 C 247.890625 77.015625 248.167969 77.101562 248.453125 77.15625 C 248.742188 77.210938 249.03125 77.242188 249.324219 77.242188 L 280.902344 77.242188 C 281.195312 77.242188 281.484375 77.210938 281.769531 77.15625 C 282.058594 77.101562 282.335938 77.015625 282.605469 76.90625 C 282.875 76.792969 283.132812 76.660156 283.375 76.5 C 283.617188 76.335938 283.84375 76.15625 284.050781 75.949219 C 284.257812 75.746094 284.441406 75.523438 284.605469 75.28125 C 284.765625 75.042969 284.902344 74.789062 285.015625 74.519531 C 285.128906 74.253906 285.210938 73.976562 285.269531 73.691406 C 285.324219 73.410156 285.355469 73.121094 285.355469 72.832031 L 285.355469 49.886719 C 285.355469 47.492188 283.421875 45.554688 281.019531 45.488281 Z M 268.753906 58.1875 C 268.734375 58.324219 268.65625 58.636719 268.648438 58.660156 C 268.378906 59.59375 267.726562 60.359375 266.886719 60.824219 L 268.3125 66.855469 C 268.355469 66.984375 268.367188 67.113281 268.347656 67.242188 C 268.328125 67.375 268.277344 67.496094 268.203125 67.601562 C 268.125 67.710938 268.027344 67.796875 267.90625 67.859375 C 267.789062 67.921875 267.664062 67.953125 267.527344 67.957031 L 262.792969 67.957031 C 262.660156 67.953125 262.53125 67.921875 262.414062 67.859375 C 262.296875 67.796875 262.199219 67.710938 262.121094 67.601562 C 262.042969 67.496094 261.996094 67.375 261.976562 67.242188 C 261.957031 67.113281 261.964844 66.984375 262.007812 66.855469 L 263.339844 60.824219 C 262.496094 60.359375 261.847656 59.59375 261.574219 58.660156 C 261.570312 58.636719 261.492188 58.324219 261.472656 58.1875 C 261.445312 58.019531 261.433594 57.851562 261.433594 57.679688 C 261.433594 57.195312 261.527344 56.730469 261.714844 56.285156 C 261.898438 55.839844 262.164062 55.445312 262.511719 55.101562 C 262.855469 54.761719 263.253906 54.496094 263.703125 54.3125 C 264.15625 54.128906 264.625 54.035156 265.113281 54.035156 C 265.601562 54.035156 266.070312 54.128906 266.519531 54.3125 C 266.972656 54.496094 267.371094 54.761719 267.714844 55.101562 C 268.058594 55.445312 268.324219 55.839844 268.511719 56.285156 C 268.699219 56.730469 268.792969 57.195312 268.792969 57.679688 C 268.792969 57.851562 268.777344 58.019531 268.753906 58.1875 Z M 275.589844 45.476562 L 254.636719 45.476562 L 254.636719 41.242188 C 254.636719 35.523438 259.332031 30.867188 265.113281 30.867188 C 270.894531 30.867188 275.589844 35.523438 275.589844 41.242188 Z M 275.589844 45.476562 " fill-opacity="1" fill-rule="nonzero"/></g><g clip-path="url(#b1068c9863)"><g clip-path="url(#2137e7abee)"><path stroke-linecap="butt" transform="matrix(0.75, 0, 0, 0.75, 396.348938, 3.411471)" fill="none" stroke-linejoin="miter" d="M 66.123294 -0.00175351 C 29.607667 -0.00175351 -0.00170944 29.607623 -0.00170944 66.12325 C -0.00170944 102.644086 29.607667 132.248254 66.123294 132.248254 C 102.64413 132.248254 132.248298 102.644086 132.248298 66.12325 C 132.248298 29.607623 102.64413 -0.00175351 66.123294 -0.00175351 Z M 66.123294 -0.00175351 " stroke="#000000" stroke-width="8" stroke-opacity="1" stroke-miterlimit="4"/></g></g><g clip-path="url(#aaa021f08f)"><path fill="#100f0d" d="M 446.707031 24.207031 C 445.988281 50.582031 445.40625 51.167969 419.109375 51.886719 C 445.40625 52.609375 445.988281 53.191406 446.707031 79.570312 C 447.425781 53.191406 448.007812 52.609375 474.304688 51.886719 C 448.007812 51.167969 447.425781 50.582031 446.707031 24.207031 " fill-opacity="1" fill-rule="nonzero"/></g><g clip-path="url(#9ea4c90bb2)"><path fill="#100f0d" d="M 421.925781 56.5625 C 421.71875 64.167969 421.550781 64.335938 413.96875 64.546875 C 421.550781 64.753906 421.71875 64.921875 421.925781 72.527344 C 422.132812 64.921875 422.300781 64.753906 429.886719 64.546875 C 422.300781 64.335938 422.132812 64.167969 421.925781 56.5625 " fill-opacity="1" fill-rule="nonzero"/></g><g clip-path="url(#3477057a74)"><path fill="#100f0d" d="M 465.632812 43.847656 C 465.945312 32.292969 466.199219 32.035156 477.722656 31.71875 C 466.199219 31.402344 465.945312 31.148438 465.632812 19.589844 C 465.316406 31.148438 465.0625 31.402344 453.539062 31.71875 C 465.0625 32.035156 465.316406 32.292969 465.632812 43.847656 " fill-opacity="1" fill-rule="nonzero"/></g><g clip-path="url(#1fbba853e5)"><g clip-path="url(#3902827125)"><path stroke-linecap="butt" transform="matrix(0.75, 0, 0, 0.75, 577.289157, 1.884862)" fill="none" stroke-linejoin="miter" d="M 66.124878 0.00247566 C 29.604043 0.00247566 -0.000125433 29.606644 -0.000125433 66.12748 C -0.000125433 102.643107 29.604043 132.252483 66.124878 132.252483 C 102.645714 132.252483 132.249882 102.643107 132.249882 66.12748 C 132.249882 29.606644 102.645714 0.00247566 66.124878 0.00247566 Z M 66.124878 0.00247566 " stroke="#000000" stroke-width="8" stroke-opacity="1" stroke-miterlimit="4"/></g></g><g clip-path="url(#cb9e813656)"><path fill="#000000" d="M 611.871094 38.257812 L 622.582031 30.164062 C 623.304688 29.621094 624.082031 29.175781 624.917969 28.832031 C 625.753906 28.484375 626.617188 28.246094 627.515625 28.121094 C 628.410156 27.992188 629.308594 27.976562 630.210938 28.078125 C 631.109375 28.175781 631.984375 28.386719 632.828125 28.707031 L 649.90625 35.175781 C 651.027344 35.597656 652.191406 35.804688 653.386719 35.800781 L 656.199219 35.800781 C 656.398438 35.796875 656.589844 35.835938 656.773438 35.914062 C 656.957031 35.988281 657.121094 36.097656 657.261719 36.238281 C 657.398438 36.378906 657.507812 36.542969 657.582031 36.726562 C 657.652344 36.910156 657.6875 37.101562 657.683594 37.300781 L 657.683594 58.03125 C 657.683594 58.226562 657.648438 58.414062 657.570312 58.59375 C 657.496094 58.773438 657.390625 58.933594 657.25 59.070312 C 657.113281 59.207031 656.953125 59.3125 656.769531 59.390625 C 656.589844 59.464844 656.402344 59.5 656.203125 59.5 L 652.492188 59.5 C 651.941406 59.503906 651.457031 59.675781 651.03125 60.015625 L 650.183594 60.703125 C 650.074219 60.789062 649.953125 60.824219 649.8125 60.808594 C 649.675781 60.792969 649.5625 60.734375 649.476562 60.628906 L 629.574219 36.621094 C 629.324219 36.316406 629.003906 36.128906 628.617188 36.058594 C 628.226562 35.984375 627.863281 36.042969 627.515625 36.234375 L 618.398438 41.308594 C 617.480469 41.816406 616.5 42.097656 615.449219 42.148438 C 614.402344 42.199219 613.394531 42.019531 612.433594 41.601562 C 612.277344 41.535156 612.132812 41.449219 612 41.347656 C 611.863281 41.246094 611.742188 41.125 611.640625 40.992188 C 611.535156 40.863281 611.449219 40.71875 611.378906 40.5625 C 611.308594 40.410156 611.261719 40.25 611.234375 40.082031 C 611.207031 39.917969 611.199219 39.75 611.214844 39.582031 C 611.226562 39.414062 611.261719 39.25 611.316406 39.089844 C 611.375 38.929688 611.449219 38.78125 611.539062 38.640625 C 611.632812 38.5 611.742188 38.371094 611.871094 38.257812 Z M 597.820312 59.488281 L 601.03125 59.488281 L 603.269531 56.769531 C 603.605469 56.367188 603.984375 56.019531 604.414062 55.722656 C 604.84375 55.421875 605.304688 55.1875 605.800781 55.019531 C 606.292969 54.847656 606.804688 54.742188 607.324219 54.710938 C 607.847656 54.675781 608.363281 54.714844 608.878906 54.820312 C 609.390625 54.929688 609.878906 55.105469 610.34375 55.34375 C 610.804688 55.585938 611.230469 55.882812 611.613281 56.238281 C 611.992188 56.59375 612.320312 56.992188 612.59375 57.4375 C 612.863281 57.878906 613.070312 58.351562 613.210938 58.851562 C 614.175781 59.117188 615.011719 59.597656 615.71875 60.296875 C 616.429688 60.996094 616.921875 61.820312 617.195312 62.777344 C 617.898438 62.980469 618.539062 63.304688 619.117188 63.75 C 619.695312 64.199219 620.167969 64.738281 620.535156 65.367188 C 621.785156 65.558594 622.851562 66.101562 623.742188 66.988281 C 624.1875 67.457031 624.546875 67.976562 624.824219 68.558594 C 625.097656 69.140625 625.273438 69.75 625.347656 70.390625 C 625.421875 71.027344 625.390625 71.660156 625.257812 72.289062 C 625.121094 72.917969 624.890625 73.507812 624.5625 74.0625 L 624.261719 74.589844 C 624.246094 74.609375 624.246094 74.625 624.261719 74.640625 C 624.808594 75.019531 625.417969 75.214844 626.082031 75.226562 C 626.75 75.234375 627.363281 75.0625 627.921875 74.699219 C 628.480469 74.339844 628.890625 73.851562 629.148438 73.242188 C 629.410156 72.632812 629.476562 72.003906 629.347656 71.355469 C 629.328125 71.316406 629.339844 71.285156 629.375 71.265625 C 629.414062 71.242188 629.445312 71.25 629.46875 71.285156 L 629.710938 71.523438 C 629.988281 71.796875 630.300781 72.015625 630.65625 72.183594 C 631.007812 72.347656 631.378906 72.449219 631.765625 72.488281 C 632.152344 72.527344 632.535156 72.5 632.914062 72.40625 C 633.292969 72.3125 633.644531 72.160156 633.972656 71.945312 C 634.503906 71.578125 634.890625 71.09375 635.132812 70.496094 C 635.378906 69.898438 635.4375 69.285156 635.3125 68.652344 C 635.292969 68.613281 635.304688 68.585938 635.339844 68.5625 C 635.378906 68.542969 635.410156 68.546875 635.433594 68.582031 L 635.675781 68.820312 C 635.953125 69.09375 636.265625 69.3125 636.617188 69.476562 C 636.96875 69.644531 637.339844 69.746094 637.726562 69.785156 C 638.113281 69.824219 638.496094 69.796875 638.875 69.703125 C 639.253906 69.609375 639.605469 69.457031 639.929688 69.242188 C 640.46875 68.878906 640.863281 68.394531 641.109375 67.792969 C 641.359375 67.195312 641.421875 66.574219 641.296875 65.9375 C 641.277344 65.898438 641.285156 65.871094 641.324219 65.847656 C 641.359375 65.828125 641.390625 65.832031 641.414062 65.871094 L 641.691406 66.132812 C 641.953125 66.386719 642.25 66.597656 642.578125 66.757812 C 642.910156 66.917969 643.257812 67.023438 643.621094 67.070312 C 643.988281 67.117188 644.351562 67.101562 644.710938 67.03125 C 645.074219 66.957031 645.410156 66.832031 645.730469 66.648438 C 645.9375 66.523438 646.128906 66.378906 646.308594 66.214844 C 646.484375 66.046875 646.636719 65.867188 646.773438 65.664062 C 646.910156 65.464844 647.019531 65.253906 647.109375 65.027344 C 647.195312 64.804688 647.257812 64.574219 647.292969 64.335938 C 647.332031 64.097656 647.339844 63.859375 647.324219 63.617188 C 647.304688 63.378906 647.261719 63.140625 647.191406 62.910156 C 647.125 62.679688 647.027344 62.460938 646.910156 62.25 C 646.792969 62.039062 646.652344 61.847656 646.488281 61.667969 L 644.480469 59.265625 L 628.261719 39.671875 C 628.179688 39.570312 628.074219 39.511719 627.949219 39.488281 C 627.820312 39.464844 627.699219 39.484375 627.585938 39.546875 L 619.835938 43.855469 C 618.585938 44.550781 617.25 44.949219 615.828125 45.058594 C 614.402344 45.167969 613.019531 44.972656 611.679688 44.476562 C 610.945312 44.222656 610.296875 43.820312 609.742188 43.277344 C 609.1875 42.730469 608.773438 42.09375 608.507812 41.367188 C 608.296875 40.617188 608.234375 39.859375 608.328125 39.085938 C 608.421875 38.316406 608.660156 37.589844 609.046875 36.914062 C 609.109375 36.800781 609.140625 36.675781 609.136719 36.546875 C 609.132812 36.417969 609.097656 36.296875 609.03125 36.1875 C 608.960938 36.074219 608.871094 35.988281 608.757812 35.921875 C 608.640625 35.859375 608.519531 35.828125 608.386719 35.832031 L 597.820312 35.832031 C 597.625 35.828125 597.433594 35.867188 597.253906 35.941406 C 597.070312 36.015625 596.910156 36.121094 596.769531 36.257812 C 596.628906 36.398438 596.523438 36.554688 596.449219 36.734375 C 596.371094 36.917969 596.335938 37.105469 596.335938 37.300781 L 596.335938 58.03125 C 596.335938 58.226562 596.375 58.414062 596.449219 58.589844 C 596.527344 58.769531 596.636719 58.929688 596.773438 59.066406 C 596.914062 59.199219 597.074219 59.304688 597.253906 59.378906 C 597.4375 59.453125 597.625 59.488281 597.820312 59.488281 Z M 609.148438 58 C 608.847656 57.835938 608.53125 57.726562 608.191406 57.671875 C 607.855469 57.621094 607.519531 57.625 607.183594 57.695312 C 606.847656 57.761719 606.535156 57.882812 606.242188 58.0625 C 605.953125 58.238281 605.703125 58.460938 605.492188 58.730469 L 603.316406 61.382812 C 603.082031 61.664062 602.910156 61.984375 602.804688 62.335938 C 602.703125 62.6875 602.667969 63.046875 602.710938 63.414062 C 602.75 63.777344 602.859375 64.121094 603.042969 64.441406 C 603.222656 64.765625 603.457031 65.039062 603.746094 65.265625 L 604.078125 65.519531 C 604.523438 65.867188 605.023438 66.058594 605.585938 66.097656 C 606.148438 66.136719 606.671875 66.019531 607.160156 65.738281 C 607.210938 65.703125 607.261719 65.707031 607.308594 65.742188 C 607.359375 65.777344 607.375 65.824219 607.359375 65.882812 C 607.257812 66.386719 607.300781 66.882812 607.480469 67.367188 C 607.660156 67.851562 607.953125 68.253906 608.363281 68.570312 L 608.632812 68.78125 C 609.058594 69.117188 609.542969 69.308594 610.082031 69.359375 C 610.621094 69.410156 611.128906 69.316406 611.613281 69.070312 C 611.664062 69.042969 611.710938 69.046875 611.757812 69.082031 C 611.804688 69.113281 611.824219 69.15625 611.820312 69.210938 C 611.765625 69.691406 611.828125 70.148438 612.015625 70.59375 C 612.203125 71.035156 612.484375 71.40625 612.867188 71.703125 L 613.054688 71.847656 C 613.484375 72.179688 613.972656 72.375 614.519531 72.425781 C 615.0625 72.476562 615.578125 72.375 616.066406 72.125 C 616.113281 72.097656 616.164062 72.09375 616.21875 72.121094 C 616.269531 72.144531 616.296875 72.1875 616.304688 72.246094 C 616.421875 72.957031 616.765625 73.535156 617.339844 73.980469 L 617.457031 74.074219 C 617.617188 74.199219 617.789062 74.304688 617.96875 74.390625 C 618.152344 74.480469 618.34375 74.546875 618.539062 74.59375 C 618.734375 74.640625 618.9375 74.664062 619.136719 74.667969 C 619.339844 74.675781 619.542969 74.65625 619.738281 74.617188 C 619.9375 74.578125 620.132812 74.519531 620.316406 74.441406 C 620.503906 74.359375 620.679688 74.261719 620.84375 74.144531 C 621.007812 74.027344 621.15625 73.894531 621.292969 73.746094 C 621.429688 73.597656 621.546875 73.433594 621.648438 73.257812 L 622.054688 72.550781 C 622.222656 72.269531 622.339844 71.96875 622.40625 71.648438 C 622.472656 71.328125 622.484375 71.003906 622.4375 70.679688 C 622.394531 70.355469 622.296875 70.050781 622.148438 69.757812 C 621.996094 69.46875 621.804688 69.207031 621.566406 68.984375 C 621.152344 68.609375 620.667969 68.378906 620.113281 68.292969 C 619.558594 68.207031 619.027344 68.28125 618.515625 68.507812 C 618.488281 68.523438 618.460938 68.523438 618.433594 68.503906 C 618.40625 68.484375 618.394531 68.460938 618.398438 68.429688 C 618.410156 68.199219 618.394531 67.972656 618.347656 67.746094 C 618.304688 67.523438 618.230469 67.304688 618.132812 67.097656 C 618.03125 66.890625 617.910156 66.699219 617.761719 66.523438 C 617.613281 66.347656 617.445312 66.191406 617.257812 66.054688 C 617.074219 65.921875 616.871094 65.8125 616.65625 65.726562 C 616.441406 65.640625 616.222656 65.582031 615.992188 65.550781 C 615.761719 65.519531 615.535156 65.519531 615.304688 65.546875 C 615.074219 65.570312 614.851562 65.625 614.636719 65.707031 C 614.222656 65.78125 614.308594 65.421875 614.308594 65.421875 C 614.535156 64.878906 614.578125 64.324219 614.449219 63.757812 C 614.316406 63.1875 614.03125 62.707031 613.589844 62.316406 C 613.148438 61.929688 612.636719 61.703125 612.050781 61.636719 C 611.46875 61.574219 610.917969 61.683594 610.402344 61.964844 C 610.09375 62.007812 610.132812 61.722656 610.132812 61.722656 C 610.3125 61.410156 610.429688 61.078125 610.476562 60.71875 C 610.527344 60.363281 610.503906 60.007812 610.410156 59.660156 C 610.320312 59.3125 610.164062 58.992188 609.945312 58.707031 C 609.726562 58.417969 609.460938 58.183594 609.148438 58 Z M 609.148438 58 " fill-opacity="1" fill-rule="nonzero"/></g><g fill="#000000" fill-opacity="1"><g transform="translate(39.020413, 123.909847)"><g><path d="M 6.078125 0 L 1.28125 0 L 1.28125 -11.4375 L 9.078125 -11.4375 C 10.941406 -11.4375 12.445312 -11.296875 13.59375 -11.015625 C 14.738281 -10.742188 15.570312 -10.304688 16.09375 -9.703125 C 16.625 -9.109375 16.890625 -8.328125 16.890625 -7.359375 C 16.890625 -6.410156 16.625 -5.632812 16.09375 -5.03125 C 15.570312 -4.4375 14.738281 -4 13.59375 -3.71875 C 12.445312 -3.4375 10.941406 -3.296875 9.078125 -3.296875 L 6.078125 -3.296875 Z M 6.078125 -6.125 L 8.8125 -6.125 C 9.582031 -6.125 10.1875 -6.15625 10.625 -6.21875 C 11.070312 -6.28125 11.398438 -6.367188 11.609375 -6.484375 C 11.816406 -6.597656 11.945312 -6.726562 12 -6.875 C 12.0625 -7.03125 12.09375 -7.191406 12.09375 -7.359375 C 12.09375 -7.546875 12.0625 -7.710938 12 -7.859375 C 11.945312 -8.015625 11.816406 -8.144531 11.609375 -8.25 C 11.398438 -8.363281 11.070312 -8.453125 10.625 -8.515625 C 10.1875 -8.578125 9.582031 -8.609375 8.8125 -8.609375 L 6.078125 -8.609375 Z M 6.078125 -6.125 "/></g></g></g><g fill="#000000" fill-opacity="1"><g transform="translate(56.548228, 123.909847)"><g><path d="M 8.046875 0.25 C 5.253906 0.25 3.289062 -0.328125 2.15625 -1.484375 C 1.195312 -2.460938 0.71875 -3.867188 0.71875 -5.703125 L 0.71875 -11.4375 L 5.515625 -11.4375 L 5.515625 -5.703125 C 5.515625 -4.910156 5.648438 -4.28125 5.921875 -3.8125 C 6.304688 -3.15625 7.015625 -2.828125 8.046875 -2.828125 C 9.078125 -2.828125 9.785156 -3.15625 10.171875 -3.8125 C 10.441406 -4.289062 10.578125 -4.921875 10.578125 -5.703125 L 10.578125 -11.4375 L 15.375 -11.4375 L 15.375 -5.640625 C 15.375 -3.847656 14.898438 -2.460938 13.953125 -1.484375 C 12.804688 -0.328125 10.835938 0.25 8.046875 0.25 Z M 8.046875 0.25 "/></g></g></g><g fill="#000000" fill-opacity="1"><g transform="translate(72.641298, 123.909847)"><g><path d="M 16.890625 0 L 12.359375 0 C 12.148438 -0.289062 12.003906 -0.65625 11.921875 -1.09375 C 11.847656 -1.445312 11.734375 -1.785156 11.578125 -2.109375 C 11.429688 -2.441406 11.175781 -2.71875 10.8125 -2.9375 C 10.445312 -3.164062 9.90625 -3.285156 9.1875 -3.296875 L 6.078125 -3.296875 L 6.078125 0 L 1.28125 0 L 1.28125 -11.4375 L 9.078125 -11.4375 C 10.941406 -11.4375 12.445312 -11.296875 13.59375 -11.015625 C 14.738281 -10.742188 15.570312 -10.304688 16.09375 -9.703125 C 16.625 -9.109375 16.890625 -8.328125 16.890625 -7.359375 C 16.890625 -6.554688 16.707031 -5.878906 16.34375 -5.328125 C 15.976562 -4.785156 15.40625 -4.359375 14.625 -4.046875 C 15.382812 -3.734375 15.875 -3.351562 16.09375 -2.90625 C 16.320312 -2.46875 16.460938 -1.988281 16.515625 -1.46875 C 16.566406 -1 16.691406 -0.507812 16.890625 0 Z M 6.078125 -6.125 L 8.8125 -6.125 C 9.582031 -6.125 10.1875 -6.160156 10.625 -6.234375 C 11.070312 -6.304688 11.398438 -6.398438 11.609375 -6.515625 C 11.816406 -6.640625 11.945312 -6.773438 12 -6.921875 C 12.0625 -7.066406 12.09375 -7.210938 12.09375 -7.359375 C 12.09375 -7.515625 12.0625 -7.664062 12 -7.8125 C 11.945312 -7.96875 11.816406 -8.101562 11.609375 -8.21875 C 11.398438 -8.34375 11.070312 -8.4375 10.625 -8.5 C 10.1875 -8.570312 9.582031 -8.609375 8.8125 -8.609375 L 6.078125 -8.609375 Z M 6.078125 -6.125 "/></g></g></g><g fill="#000000" fill-opacity="1"><g transform="translate(90.169114, 123.909847)"><g><path d="M 6.078125 0 L 1.28125 0 L 1.28125 -11.4375 L 6.078125 -11.4375 Z M 6.078125 0 "/></g></g></g><g fill="#000000" fill-opacity="1"><g transform="translate(97.5182, 123.909847)"><g><path d="M 9.765625 0 L 4.953125 0 L 4.953125 -8.609375 L 0.484375 -8.609375 L 0.484375 -11.4375 L 14.234375 -11.4375 L 14.234375 -8.609375 L 9.765625 -8.609375 Z M 9.765625 0 "/></g></g></g><g fill="#000000" fill-opacity="1"><g transform="translate(112.232314, 123.909847)"><g><path d="M 11.15625 0 L 6.359375 0 L 6.359375 -5.421875 L 0.125 -11.4375 L 5.4375 -11.4375 L 8.765625 -8.015625 L 12.078125 -11.4375 L 17.390625 -11.4375 L 11.15625 -5.421875 Z M 11.15625 0 "/></g></g></g><g fill="#000000" fill-opacity="1"><g transform="translate(37.2626, 146.409845)"><g><path d="M 9.765625 0 L 4.953125 0 L 4.953125 -8.609375 L 0.484375 -8.609375 L 0.484375 -11.4375 L 14.234375 -11.4375 L 14.234375 -8.609375 L 9.765625 -8.609375 Z M 9.765625 0 "/></g></g></g><g fill="#000000" fill-opacity="1"><g transform="translate(51.976715, 146.409845)"><g><path d="M 15.046875 0 L 1.28125 0 L 1.28125 -11.4375 L 14.421875 -11.4375 L 14.421875 -8.609375 L 6.078125 -8.609375 L 6.078125 -6.8125 L 13.125 -6.8125 L 13.125 -4.609375 L 6.078125 -4.609375 L 6.078125 -2.828125 L 15.046875 -2.828125 Z M 15.046875 0 "/></g></g></g><g fill="#000000" fill-opacity="1"><g transform="translate(67.663267, 146.409845)"><g><path d="M 7.5625 0.25 C 6.007812 0.25 4.757812 0.0820312 3.8125 -0.25 C 2.875 -0.582031 2.15625 -1.039062 1.65625 -1.625 C 1.164062 -2.207031 0.832031 -2.878906 0.65625 -3.640625 L 5.75 -3.640625 C 6.132812 -3.097656 6.738281 -2.828125 7.5625 -2.828125 C 8.382812 -2.828125 8.984375 -3.097656 9.359375 -3.640625 C 9.390625 -3.691406 9.40625 -3.738281 9.40625 -3.78125 C 9.40625 -3.925781 9.210938 -4.03125 8.828125 -4.09375 C 8.453125 -4.164062 7.890625 -4.222656 7.140625 -4.265625 C 6.179688 -4.304688 5.179688 -4.40625 4.140625 -4.5625 C 1.804688 -4.925781 0.640625 -5.863281 0.640625 -7.375 C 0.640625 -7.507812 0.644531 -7.648438 0.65625 -7.796875 C 0.832031 -8.546875 1.164062 -9.210938 1.65625 -9.796875 C 2.15625 -10.378906 2.875 -10.835938 3.8125 -11.171875 C 4.757812 -11.503906 6.007812 -11.671875 7.5625 -11.671875 C 9.101562 -11.671875 10.347656 -11.503906 11.296875 -11.171875 C 12.242188 -10.835938 12.960938 -10.378906 13.453125 -9.796875 C 13.953125 -9.210938 14.285156 -8.546875 14.453125 -7.796875 L 9.359375 -7.796875 C 8.984375 -8.335938 8.382812 -8.609375 7.5625 -8.609375 C 6.738281 -8.609375 6.132812 -8.335938 5.75 -7.796875 C 5.726562 -7.742188 5.71875 -7.703125 5.71875 -7.671875 C 5.71875 -7.546875 5.898438 -7.453125 6.265625 -7.390625 C 6.628906 -7.328125 7.164062 -7.273438 7.875 -7.234375 C 8.582031 -7.191406 9.335938 -7.117188 10.140625 -7.015625 C 10.941406 -6.921875 11.691406 -6.753906 12.390625 -6.515625 C 13.085938 -6.285156 13.632812 -5.941406 14.03125 -5.484375 C 14.34375 -5.117188 14.5 -4.664062 14.5 -4.125 C 14.5 -3.96875 14.484375 -3.804688 14.453125 -3.640625 C 14.285156 -2.878906 13.953125 -2.207031 13.453125 -1.625 C 12.960938 -1.039062 12.242188 -0.582031 11.296875 -0.25 C 10.347656 0.0820312 9.101562 0.25 7.5625 0.25 Z M 7.5625 0.25 "/></g></g></g><g fill="#000000" fill-opacity="1"><g transform="translate(82.791864, 146.409845)"><g><path d="M 9.765625 0 L 4.953125 0 L 4.953125 -8.609375 L 0.484375 -8.609375 L 0.484375 -11.4375 L 14.234375 -11.4375 L 14.234375 -8.609375 L 9.765625 -8.609375 Z M 9.765625 0 "/></g></g></g><g fill="#000000" fill-opacity="1"><g transform="translate(97.505978, 146.409845)"><g><path d="M 15.046875 0 L 1.28125 0 L 1.28125 -11.4375 L 14.421875 -11.4375 L 14.421875 -8.609375 L 6.078125 -8.609375 L 6.078125 -6.8125 L 13.125 -6.8125 L 13.125 -4.609375 L 6.078125 -4.609375 L 6.078125 -2.828125 L 15.046875 -2.828125 Z M 15.046875 0 "/></g></g></g><g fill="#000000" fill-opacity="1"><g transform="translate(113.192531, 146.409845)"><g><path d="M 8.921875 0 L 1.28125 0 L 1.28125 -11.4375 L 8.921875 -11.4375 C 12.054688 -11.4375 14.3125 -11 15.6875 -10.125 C 16.789062 -9.414062 17.421875 -8.453125 17.578125 -7.234375 C 17.640625 -6.710938 17.671875 -6.207031 17.671875 -5.71875 C 17.671875 -5.226562 17.632812 -4.71875 17.5625 -4.1875 C 17.5 -3.664062 17.320312 -3.15625 17.03125 -2.65625 C 16.75 -2.15625 16.296875 -1.707031 15.671875 -1.3125 C 15.046875 -0.914062 14.191406 -0.597656 13.109375 -0.359375 C 12.023438 -0.117188 10.628906 0 8.921875 0 Z M 8.46875 -2.828125 C 10.914062 -2.828125 12.296875 -3.445312 12.609375 -4.6875 C 12.691406 -5.03125 12.734375 -5.375 12.734375 -5.71875 C 12.734375 -6.070312 12.691406 -6.414062 12.609375 -6.75 C 12.523438 -7.09375 12.335938 -7.40625 12.046875 -7.6875 C 11.765625 -7.96875 11.335938 -8.191406 10.765625 -8.359375 C 10.203125 -8.523438 9.4375 -8.609375 8.46875 -8.609375 L 6.078125 -8.609375 L 6.078125 -2.828125 Z M 8.46875 -2.828125 "/></g></g></g><g fill="#000000" fill-opacity="1"><g transform="translate(216.373354, 122.383238)"><g><path d="M 7.5625 0.25 C 6.007812 0.25 4.757812 0.0820312 3.8125 -0.25 C 2.875 -0.582031 2.15625 -1.039062 1.65625 -1.625 C 1.164062 -2.207031 0.832031 -2.878906 0.65625 -3.640625 L 5.75 -3.640625 C 6.132812 -3.097656 6.738281 -2.828125 7.5625 -2.828125 C 8.382812 -2.828125 8.984375 -3.097656 9.359375 -3.640625 C 9.390625 -3.691406 9.40625 -3.738281 9.40625 -3.78125 C 9.40625 -3.925781 9.210938 -4.03125 8.828125 -4.09375 C 8.453125 -4.164062 7.890625 -4.222656 7.140625 -4.265625 C 6.179688 -4.304688 5.179688 -4.40625 4.140625 -4.5625 C 1.804688 -4.925781 0.640625 -5.863281 0.640625 -7.375 C 0.640625 -7.507812 0.644531 -7.648438 0.65625 -7.796875 C 0.832031 -8.546875 1.164062 -9.210938 1.65625 -9.796875 C 2.15625 -10.378906 2.875 -10.835938 3.8125 -11.171875 C 4.757812 -11.503906 6.007812 -11.671875 7.5625 -11.671875 C 9.101562 -11.671875 10.347656 -11.503906 11.296875 -11.171875 C 12.242188 -10.835938 12.960938 -10.378906 13.453125 -9.796875 C 13.953125 -9.210938 14.285156 -8.546875 14.453125 -7.796875 L 9.359375 -7.796875 C 8.984375 -8.335938 8.382812 -8.609375 7.5625 -8.609375 C 6.738281 -8.609375 6.132812 -8.335938 5.75 -7.796875 C 5.726562 -7.742188 5.71875 -7.703125 5.71875 -7.671875 C 5.71875 -7.546875 5.898438 -7.453125 6.265625 -7.390625 C 6.628906 -7.328125 7.164062 -7.273438 7.875 -7.234375 C 8.582031 -7.191406 9.335938 -7.117188 10.140625 -7.015625 C 10.941406 -6.921875 11.691406 -6.753906 12.390625 -6.515625 C 13.085938 -6.285156 13.632812 -5.941406 14.03125 -5.484375 C 14.34375 -5.117188 14.5 -4.664062 14.5 -4.125 C 14.5 -3.96875 14.484375 -3.804688 14.453125 -3.640625 C 14.285156 -2.878906 13.953125 -2.207031 13.453125 -1.625 C 12.960938 -1.039062 12.242188 -0.582031 11.296875 -0.25 C 10.347656 0.0820312 9.101562 0.25 7.5625 0.25 Z M 7.5625 0.25 "/></g></g></g><g fill="#000000" fill-opacity="1"><g transform="translate(231.50195, 122.383238)"><g><path d="M 15.046875 0 L 1.28125 0 L 1.28125 -11.4375 L 14.421875 -11.4375 L 14.421875 -8.609375 L 6.078125 -8.609375 L 6.078125 -6.8125 L 13.125 -6.8125 L 13.125 -4.609375 L 6.078125 -4.609375 L 6.078125 -2.828125 L 15.046875 -2.828125 Z M 15.046875 0 "/></g></g></g><g fill="#000000" fill-opacity="1"><g transform="translate(247.188503, 122.383238)"><g><path d="M 8.65625 0.25 C 5.820312 0.25 3.738281 -0.332031 2.40625 -1.5 C 1.226562 -2.519531 0.640625 -3.921875 0.640625 -5.703125 C 0.640625 -7.484375 1.226562 -8.890625 2.40625 -9.921875 C 3.738281 -11.085938 5.820312 -11.671875 8.65625 -11.671875 C 10.3125 -11.671875 11.679688 -11.476562 12.765625 -11.09375 C 13.847656 -10.71875 14.6875 -10.195312 15.28125 -9.53125 C 15.882812 -8.875 16.285156 -8.117188 16.484375 -7.265625 L 11.4375 -7.265625 C 10.9375 -8.160156 10.007812 -8.609375 8.65625 -8.609375 C 7.488281 -8.609375 6.632812 -8.269531 6.09375 -7.59375 C 5.65625 -7.0625 5.4375 -6.429688 5.4375 -5.703125 C 5.4375 -4.972656 5.65625 -4.34375 6.09375 -3.8125 C 6.632812 -3.144531 7.488281 -2.8125 8.65625 -2.8125 C 10.007812 -2.8125 10.9375 -3.257812 11.4375 -4.15625 L 16.484375 -4.15625 C 16.285156 -3.300781 15.882812 -2.539062 15.28125 -1.875 C 14.6875 -1.21875 13.847656 -0.695312 12.765625 -0.3125 C 11.679688 0.0625 10.3125 0.25 8.65625 0.25 Z M 8.65625 0.25 "/></g></g></g><g fill="#000000" fill-opacity="1"><g transform="translate(264.309802, 122.383238)"><g><path d="M 8.046875 0.25 C 5.253906 0.25 3.289062 -0.328125 2.15625 -1.484375 C 1.195312 -2.460938 0.71875 -3.867188 0.71875 -5.703125 L 0.71875 -11.4375 L 5.515625 -11.4375 L 5.515625 -5.703125 C 5.515625 -4.910156 5.648438 -4.28125 5.921875 -3.8125 C 6.304688 -3.15625 7.015625 -2.828125 8.046875 -2.828125 C 9.078125 -2.828125 9.785156 -3.15625 10.171875 -3.8125 C 10.441406 -4.289062 10.578125 -4.921875 10.578125 -5.703125 L 10.578125 -11.4375 L 15.375 -11.4375 L 15.375 -5.640625 C 15.375 -3.847656 14.898438 -2.460938 13.953125 -1.484375 C 12.804688 -0.328125 10.835938 0.25 8.046875 0.25 Z M 8.046875 0.25 "/></g></g></g><g fill="#000000" fill-opacity="1"><g transform="translate(280.402872, 122.383238)"><g><path d="M 16.890625 0 L 12.359375 0 C 12.148438 -0.289062 12.003906 -0.65625 11.921875 -1.09375 C 11.847656 -1.445312 11.734375 -1.785156 11.578125 -2.109375 C 11.429688 -2.441406 11.175781 -2.71875 10.8125 -2.9375 C 10.445312 -3.164062 9.90625 -3.285156 9.1875 -3.296875 L 6.078125 -3.296875 L 6.078125 0 L 1.28125 0 L 1.28125 -11.4375 L 9.078125 -11.4375 C 10.941406 -11.4375 12.445312 -11.296875 13.59375 -11.015625 C 14.738281 -10.742188 15.570312 -10.304688 16.09375 -9.703125 C 16.625 -9.109375 16.890625 -8.328125 16.890625 -7.359375 C 16.890625 -6.554688 16.707031 -5.878906 16.34375 -5.328125 C 15.976562 -4.785156 15.40625 -4.359375 14.625 -4.046875 C 15.382812 -3.734375 15.875 -3.351562 16.09375 -2.90625 C 16.320312 -2.46875 16.460938 -1.988281 16.515625 -1.46875 C 16.566406 -1 16.691406 -0.507812 16.890625 0 Z M 6.078125 -6.125 L 8.8125 -6.125 C 9.582031 -6.125 10.1875 -6.160156 10.625 -6.234375 C 11.070312 -6.304688 11.398438 -6.398438 11.609375 -6.515625 C 11.816406 -6.640625 11.945312 -6.773438 12 -6.921875 C 12.0625 -7.066406 12.09375 -7.210938 12.09375 -7.359375 C 12.09375 -7.515625 12.0625 -7.664062 12 -7.8125 C 11.945312 -7.96875 11.816406 -8.101562 11.609375 -8.21875 C 11.398438 -8.34375 11.070312 -8.4375 10.625 -8.5 C 10.1875 -8.570312 9.582031 -8.609375 8.8125 -8.609375 L 6.078125 -8.609375 Z M 6.078125 -6.125 "/></g></g></g><g fill="#000000" fill-opacity="1"><g transform="translate(297.930687, 122.383238)"><g><path d="M 15.046875 0 L 1.28125 0 L 1.28125 -11.4375 L 14.421875 -11.4375 L 14.421875 -8.609375 L 6.078125 -8.609375 L 6.078125 -6.8125 L 13.125 -6.8125 L 13.125 -4.609375 L 6.078125 -4.609375 L 6.078125 -2.828125 L 15.046875 -2.828125 Z M 15.046875 0 "/></g></g></g><g fill="#000000" fill-opacity="1"><g transform="translate(214.25226, 144.883237)"><g><path d="M 8.65625 0.25 C 5.820312 0.25 3.738281 -0.332031 2.40625 -1.5 C 1.226562 -2.53125 0.640625 -3.9375 0.640625 -5.71875 C 0.640625 -7.488281 1.226562 -8.890625 2.40625 -9.921875 C 3.738281 -11.085938 5.820312 -11.671875 8.65625 -11.671875 C 11.476562 -11.671875 13.554688 -11.085938 14.890625 -9.921875 C 16.066406 -8.890625 16.65625 -7.488281 16.65625 -5.71875 C 16.65625 -3.9375 16.066406 -2.53125 14.890625 -1.5 C 13.554688 -0.332031 11.476562 0.25 8.65625 0.25 Z M 8.65625 -2.828125 C 9.8125 -2.828125 10.660156 -3.15625 11.203125 -3.8125 C 11.640625 -4.351562 11.859375 -4.988281 11.859375 -5.71875 C 11.859375 -6.445312 11.640625 -7.078125 11.203125 -7.609375 C 10.660156 -8.273438 9.8125 -8.609375 8.65625 -8.609375 C 7.488281 -8.609375 6.632812 -8.273438 6.09375 -7.609375 C 5.65625 -7.078125 5.4375 -6.445312 5.4375 -5.71875 C 5.4375 -4.988281 5.65625 -4.351562 6.09375 -3.8125 C 6.632812 -3.15625 7.488281 -2.828125 8.65625 -2.828125 Z M 8.65625 -2.828125 "/></g></g></g><g fill="#000000" fill-opacity="1"><g transform="translate(231.548917, 144.883237)"><g><path d="M 16.890625 0 L 12.359375 0 C 12.148438 -0.289062 12.003906 -0.65625 11.921875 -1.09375 C 11.847656 -1.445312 11.734375 -1.785156 11.578125 -2.109375 C 11.429688 -2.441406 11.175781 -2.71875 10.8125 -2.9375 C 10.445312 -3.164062 9.90625 -3.285156 9.1875 -3.296875 L 6.078125 -3.296875 L 6.078125 0 L 1.28125 0 L 1.28125 -11.4375 L 9.078125 -11.4375 C 10.941406 -11.4375 12.445312 -11.296875 13.59375 -11.015625 C 14.738281 -10.742188 15.570312 -10.304688 16.09375 -9.703125 C 16.625 -9.109375 16.890625 -8.328125 16.890625 -7.359375 C 16.890625 -6.554688 16.707031 -5.878906 16.34375 -5.328125 C 15.976562 -4.785156 15.40625 -4.359375 14.625 -4.046875 C 15.382812 -3.734375 15.875 -3.351562 16.09375 -2.90625 C 16.320312 -2.46875 16.460938 -1.988281 16.515625 -1.46875 C 16.566406 -1 16.691406 -0.507812 16.890625 0 Z M 6.078125 -6.125 L 8.8125 -6.125 C 9.582031 -6.125 10.1875 -6.160156 10.625 -6.234375 C 11.070312 -6.304688 11.398438 -6.398438 11.609375 -6.515625 C 11.816406 -6.640625 11.945312 -6.773438 12 -6.921875 C 12.0625 -7.066406 12.09375 -7.210938 12.09375 -7.359375 C 12.09375 -7.515625 12.0625 -7.664062 12 -7.8125 C 11.945312 -7.96875 11.816406 -8.101562 11.609375 -8.21875 C 11.398438 -8.34375 11.070312 -8.4375 10.625 -8.5 C 10.1875 -8.570312 9.582031 -8.609375 8.8125 -8.609375 L 6.078125 -8.609375 Z M 6.078125 -6.125 "/></g></g></g><g fill="#000000" fill-opacity="1"><g transform="translate(249.076732, 144.883237)"><g><path d="M 8.921875 0 L 1.28125 0 L 1.28125 -11.4375 L 8.921875 -11.4375 C 12.054688 -11.4375 14.3125 -11 15.6875 -10.125 C 16.789062 -9.414062 17.421875 -8.453125 17.578125 -7.234375 C 17.640625 -6.710938 17.671875 -6.207031 17.671875 -5.71875 C 17.671875 -5.226562 17.632812 -4.71875 17.5625 -4.1875 C 17.5 -3.664062 17.320312 -3.15625 17.03125 -2.65625 C 16.75 -2.15625 16.296875 -1.707031 15.671875 -1.3125 C 15.046875 -0.914062 14.191406 -0.597656 13.109375 -0.359375 C 12.023438 -0.117188 10.628906 0 8.921875 0 Z M 8.46875 -2.828125 C 10.914062 -2.828125 12.296875 -3.445312 12.609375 -4.6875 C 12.691406 -5.03125 12.734375 -5.375 12.734375 -5.71875 C 12.734375 -6.070312 12.691406 -6.414062 12.609375 -6.75 C 12.523438 -7.09375 12.335938 -7.40625 12.046875 -7.6875 C 11.765625 -7.96875 11.335938 -8.191406 10.765625 -8.359375 C 10.203125 -8.523438 9.4375 -8.609375 8.46875 -8.609375 L 6.078125 -8.609375 L 6.078125 -2.828125 Z M 8.46875 -2.828125 "/></g></g></g><g fill="#000000" fill-opacity="1"><g transform="translate(267.385687, 144.883237)"><g><path d="M 15.046875 0 L 1.28125 0 L 1.28125 -11.4375 L 14.421875 -11.4375 L 14.421875 -8.609375 L 6.078125 -8.609375 L 6.078125 -6.8125 L 13.125 -6.8125 L 13.125 -4.609375 L 6.078125 -4.609375 L 6.078125 -2.828125 L 15.046875 -2.828125 Z M 15.046875 0 "/></g></g></g><g fill="#000000" fill-opacity="1"><g transform="translate(283.07224, 144.883237)"><g><path d="M 16.890625 0 L 12.359375 0 C 12.148438 -0.289062 12.003906 -0.65625 11.921875 -1.09375 C 11.847656 -1.445312 11.734375 -1.785156 11.578125 -2.109375 C 11.429688 -2.441406 11.175781 -2.71875 10.8125 -2.9375 C 10.445312 -3.164062 9.90625 -3.285156 9.1875 -3.296875 L 6.078125 -3.296875 L 6.078125 0 L 1.28125 0 L 1.28125 -11.4375 L 9.078125 -11.4375 C 10.941406 -11.4375 12.445312 -11.296875 13.59375 -11.015625 C 14.738281 -10.742188 15.570312 -10.304688 16.09375 -9.703125 C 16.625 -9.109375 16.890625 -8.328125 16.890625 -7.359375 C 16.890625 -6.554688 16.707031 -5.878906 16.34375 -5.328125 C 15.976562 -4.785156 15.40625 -4.359375 14.625 -4.046875 C 15.382812 -3.734375 15.875 -3.351562 16.09375 -2.90625 C 16.320312 -2.46875 16.460938 -1.988281 16.515625 -1.46875 C 16.566406 -1 16.691406 -0.507812 16.890625 0 Z M 6.078125 -6.125 L 8.8125 -6.125 C 9.582031 -6.125 10.1875 -6.160156 10.625 -6.234375 C 11.070312 -6.304688 11.398438 -6.398438 11.609375 -6.515625 C 11.816406 -6.640625 11.945312 -6.773438 12 -6.921875 C 12.0625 -7.066406 12.09375 -7.210938 12.09375 -7.359375 C 12.09375 -7.515625 12.0625 -7.664062 12 -7.8125 C 11.945312 -7.96875 11.816406 -8.101562 11.609375 -8.21875 C 11.398438 -8.34375 11.070312 -8.4375 10.625 -8.5 C 10.1875 -8.570312 9.582031 -8.609375 8.8125 -8.609375 L 6.078125 -8.609375 Z M 6.078125 -6.125 "/></g></g></g><g fill="#000000" fill-opacity="1"><g transform="translate(300.600056, 144.883237)"><g><path d="M 7.5625 0.25 C 6.007812 0.25 4.757812 0.0820312 3.8125 -0.25 C 2.875 -0.582031 2.15625 -1.039062 1.65625 -1.625 C 1.164062 -2.207031 0.832031 -2.878906 0.65625 -3.640625 L 5.75 -3.640625 C 6.132812 -3.097656 6.738281 -2.828125 7.5625 -2.828125 C 8.382812 -2.828125 8.984375 -3.097656 9.359375 -3.640625 C 9.390625 -3.691406 9.40625 -3.738281 9.40625 -3.78125 C 9.40625 -3.925781 9.210938 -4.03125 8.828125 -4.09375 C 8.453125 -4.164062 7.890625 -4.222656 7.140625 -4.265625 C 6.179688 -4.304688 5.179688 -4.40625 4.140625 -4.5625 C 1.804688 -4.925781 0.640625 -5.863281 0.640625 -7.375 C 0.640625 -7.507812 0.644531 -7.648438 0.65625 -7.796875 C 0.832031 -8.546875 1.164062 -9.210938 1.65625 -9.796875 C 2.15625 -10.378906 2.875 -10.835938 3.8125 -11.171875 C 4.757812 -11.503906 6.007812 -11.671875 7.5625 -11.671875 C 9.101562 -11.671875 10.347656 -11.503906 11.296875 -11.171875 C 12.242188 -10.835938 12.960938 -10.378906 13.453125 -9.796875 C 13.953125 -9.210938 14.285156 -8.546875 14.453125 -7.796875 L 9.359375 -7.796875 C 8.984375 -8.335938 8.382812 -8.609375 7.5625 -8.609375 C 6.738281 -8.609375 6.132812 -8.335938 5.75 -7.796875 C 5.726562 -7.742188 5.71875 -7.703125 5.71875 -7.671875 C 5.71875 -7.546875 5.898438 -7.453125 6.265625 -7.390625 C 6.628906 -7.328125 7.164062 -7.273438 7.875 -7.234375 C 8.582031 -7.191406 9.335938 -7.117188 10.140625 -7.015625 C 10.941406 -6.921875 11.691406 -6.753906 12.390625 -6.515625 C 13.085938 -6.285156 13.632812 -5.941406 14.03125 -5.484375 C 14.34375 -5.117188 14.5 -4.664062 14.5 -4.125 C 14.5 -3.96875 14.484375 -3.804688 14.453125 -3.640625 C 14.285156 -2.878906 13.953125 -2.207031 13.453125 -1.625 C 12.960938 -1.039062 12.242188 -0.582031 11.296875 -0.25 C 10.347656 0.0820312 9.101562 0.25 7.5625 0.25 Z M 7.5625 0.25 "/></g></g></g><g fill="#000000" fill-opacity="1"><g transform="translate(389.504223, 123.909861)"><g><path d="M 8.375 0 L 1.203125 0 L 1.203125 -10.734375 L 8.375 -10.734375 C 11.320312 -10.734375 13.4375 -10.320312 14.71875 -9.5 C 15.757812 -8.84375 16.351562 -7.941406 16.5 -6.796875 C 16.5625 -6.304688 16.59375 -5.828125 16.59375 -5.359375 C 16.59375 -4.910156 16.5625 -4.4375 16.5 -3.9375 C 16.4375 -3.445312 16.269531 -2.96875 16 -2.5 C 15.726562 -2.03125 15.300781 -1.609375 14.71875 -1.234375 C 14.132812 -0.859375 13.332031 -0.554688 12.3125 -0.328125 C 11.289062 -0.109375 9.976562 0 8.375 0 Z M 7.953125 -2.65625 C 10.242188 -2.65625 11.539062 -3.234375 11.84375 -4.390625 C 11.914062 -4.710938 11.953125 -5.035156 11.953125 -5.359375 C 11.953125 -5.691406 11.910156 -6.019531 11.828125 -6.34375 C 11.753906 -6.664062 11.582031 -6.957031 11.3125 -7.21875 C 11.039062 -7.476562 10.640625 -7.6875 10.109375 -7.84375 C 9.578125 -8 8.859375 -8.078125 7.953125 -8.078125 L 5.703125 -8.078125 L 5.703125 -2.65625 Z M 7.953125 -2.65625 "/></g></g></g><g fill="#000000" fill-opacity="1"><g transform="translate(406.695971, 123.909861)"><g><path d="M 7.546875 0.234375 C 4.929688 0.234375 3.085938 -0.3125 2.015625 -1.40625 C 1.117188 -2.3125 0.671875 -3.628906 0.671875 -5.359375 L 0.671875 -10.734375 L 5.171875 -10.734375 L 5.171875 -5.359375 C 5.171875 -4.609375 5.300781 -4.015625 5.5625 -3.578125 C 5.925781 -2.960938 6.585938 -2.65625 7.546875 -2.65625 C 8.523438 -2.65625 9.191406 -2.960938 9.546875 -3.578125 C 9.804688 -4.035156 9.9375 -4.628906 9.9375 -5.359375 L 9.9375 -10.734375 L 14.4375 -10.734375 L 14.4375 -5.296875 C 14.4375 -3.609375 13.988281 -2.3125 13.09375 -1.40625 C 12.019531 -0.3125 10.171875 0.234375 7.546875 0.234375 Z M 7.546875 0.234375 "/></g></g></g><g fill="#000000" fill-opacity="1"><g transform="translate(421.807047, 123.909861)"><g><path d="M 15.859375 0 L 11.59375 0 C 11.40625 -0.269531 11.269531 -0.613281 11.1875 -1.03125 C 11.113281 -1.351562 11.007812 -1.671875 10.875 -1.984375 C 10.738281 -2.296875 10.5 -2.554688 10.15625 -2.765625 C 9.8125 -2.972656 9.300781 -3.082031 8.625 -3.09375 L 5.703125 -3.09375 L 5.703125 0 L 1.203125 0 L 1.203125 -10.734375 L 8.53125 -10.734375 C 10.28125 -10.734375 11.691406 -10.601562 12.765625 -10.34375 C 13.835938 -10.082031 14.617188 -9.671875 15.109375 -9.109375 C 15.609375 -8.546875 15.859375 -7.816406 15.859375 -6.921875 C 15.859375 -6.160156 15.6875 -5.523438 15.34375 -5.015625 C 15 -4.503906 14.457031 -4.097656 13.71875 -3.796875 C 14.4375 -3.503906 14.898438 -3.148438 15.109375 -2.734375 C 15.328125 -2.328125 15.457031 -1.875 15.5 -1.375 C 15.550781 -0.9375 15.671875 -0.476562 15.859375 0 Z M 5.703125 -5.75 L 8.28125 -5.75 C 9 -5.75 9.5625 -5.78125 9.96875 -5.84375 C 10.382812 -5.914062 10.691406 -6.003906 10.890625 -6.109375 C 11.085938 -6.222656 11.210938 -6.347656 11.265625 -6.484375 C 11.328125 -6.628906 11.359375 -6.773438 11.359375 -6.921875 C 11.359375 -7.054688 11.328125 -7.191406 11.265625 -7.328125 C 11.210938 -7.472656 11.085938 -7.601562 10.890625 -7.71875 C 10.691406 -7.832031 10.382812 -7.921875 9.96875 -7.984375 C 9.5625 -8.046875 9 -8.078125 8.28125 -8.078125 L 5.703125 -8.078125 Z M 5.703125 -5.75 "/></g></g></g><g fill="#000000" fill-opacity="1"><g transform="translate(438.26532, 123.909861)"><g><path d="M 18.03125 0 L 13.46875 0 L 12.46875 -1.765625 L 5.6875 -1.765625 L 4.671875 0 L 0.109375 0 L 6.984375 -10.734375 L 11.171875 -10.734375 Z M 10.9375 -4.421875 L 9.078125 -7.671875 L 7.203125 -4.421875 Z M 10.9375 -4.421875 "/></g></g></g><g fill="#000000" fill-opacity="1"><g transform="translate(456.415077, 123.909861)"><g><path d="M 8.90625 0 L 1.203125 0 L 1.203125 -10.734375 L 9.0625 -10.734375 C 10.457031 -10.734375 11.609375 -10.664062 12.515625 -10.53125 C 13.421875 -10.40625 14.113281 -10.207031 14.59375 -9.9375 C 15.082031 -9.664062 15.414062 -9.320312 15.59375 -8.90625 C 15.769531 -8.488281 15.859375 -7.988281 15.859375 -7.40625 C 15.847656 -6.945312 15.722656 -6.566406 15.484375 -6.265625 C 15.242188 -5.960938 14.960938 -5.734375 14.640625 -5.578125 C 14.328125 -5.429688 14.050781 -5.359375 13.8125 -5.359375 C 14.050781 -5.359375 14.328125 -5.3125 14.640625 -5.21875 C 14.953125 -5.132812 15.253906 -5.003906 15.546875 -4.828125 C 15.847656 -4.648438 16.097656 -4.4375 16.296875 -4.1875 C 16.492188 -3.9375 16.59375 -3.65625 16.59375 -3.34375 C 16.59375 -2.914062 16.539062 -2.523438 16.4375 -2.171875 C 16.34375 -1.828125 16.148438 -1.519531 15.859375 -1.25 C 15.566406 -0.988281 15.132812 -0.765625 14.5625 -0.578125 C 14 -0.390625 13.253906 -0.242188 12.328125 -0.140625 C 11.410156 -0.046875 10.269531 0 8.90625 0 Z M 8.640625 -6.28125 C 9.296875 -6.28125 9.804688 -6.3125 10.171875 -6.375 C 10.535156 -6.445312 10.785156 -6.546875 10.921875 -6.671875 C 11.066406 -6.804688 11.140625 -6.976562 11.140625 -7.1875 C 11.140625 -7.394531 11.066406 -7.5625 10.921875 -7.6875 C 10.785156 -7.820312 10.535156 -7.921875 10.171875 -7.984375 C 9.804688 -8.046875 9.296875 -8.078125 8.640625 -8.078125 L 5.703125 -8.078125 L 5.703125 -6.28125 Z M 8.640625 -2.65625 C 9.316406 -2.65625 9.863281 -2.671875 10.28125 -2.703125 C 10.695312 -2.734375 11.003906 -2.8125 11.203125 -2.9375 C 11.398438 -3.0625 11.5 -3.265625 11.5 -3.546875 C 11.5 -3.828125 11.398438 -4.03125 11.203125 -4.15625 C 11.003906 -4.28125 10.695312 -4.359375 10.28125 -4.390625 C 9.863281 -4.429688 9.316406 -4.453125 8.640625 -4.453125 L 5.703125 -4.453125 L 5.703125 -2.65625 Z M 8.640625 -2.65625 "/></g></g></g><g fill="#000000" fill-opacity="1"><g transform="translate(473.606826, 123.909861)"><g><path d="M 13.734375 0 L 1.203125 0 L 1.203125 -10.734375 L 5.703125 -10.734375 L 5.703125 -2.65625 L 13.734375 -2.65625 Z M 13.734375 0 "/></g></g></g><g fill="#000000" fill-opacity="1"><g transform="translate(487.640143, 123.909861)"><g><path d="M 14.125 0 L 1.203125 0 L 1.203125 -10.734375 L 13.546875 -10.734375 L 13.546875 -8.078125 L 5.703125 -8.078125 L 5.703125 -6.40625 L 12.328125 -6.40625 L 12.328125 -4.328125 L 5.703125 -4.328125 L 5.703125 -2.65625 L 14.125 -2.65625 Z M 14.125 0 "/></g></g></g><g fill="#000000" fill-opacity="1"><g transform="translate(373.109692, 144.90986)"><g><path d="M 5.703125 0 L 1.203125 0 L 1.203125 -10.734375 L 8.53125 -10.734375 C 10.28125 -10.734375 11.691406 -10.601562 12.765625 -10.34375 C 13.835938 -10.082031 14.617188 -9.671875 15.109375 -9.109375 C 15.609375 -8.546875 15.859375 -7.816406 15.859375 -6.921875 C 15.859375 -6.015625 15.609375 -5.28125 15.109375 -4.71875 C 14.617188 -4.164062 13.835938 -3.753906 12.765625 -3.484375 C 11.691406 -3.222656 10.28125 -3.09375 8.53125 -3.09375 L 5.703125 -3.09375 Z M 5.703125 -5.75 L 8.28125 -5.75 C 9 -5.75 9.5625 -5.773438 9.96875 -5.828125 C 10.382812 -5.890625 10.691406 -5.972656 10.890625 -6.078125 C 11.085938 -6.179688 11.210938 -6.304688 11.265625 -6.453125 C 11.328125 -6.597656 11.359375 -6.753906 11.359375 -6.921875 C 11.359375 -7.085938 11.328125 -7.238281 11.265625 -7.375 C 11.210938 -7.519531 11.085938 -7.644531 10.890625 -7.75 C 10.691406 -7.851562 10.382812 -7.929688 9.96875 -7.984375 C 9.5625 -8.046875 9 -8.078125 8.28125 -8.078125 L 5.703125 -8.078125 Z M 5.703125 -5.75 "/></g></g></g><g fill="#000000" fill-opacity="1"><g transform="translate(389.567966, 144.90986)"><g><path d="M 18.03125 0 L 13.46875 0 L 12.46875 -1.765625 L 5.6875 -1.765625 L 4.671875 0 L 0.109375 0 L 6.984375 -10.734375 L 11.171875 -10.734375 Z M 10.9375 -4.421875 L 9.078125 -7.671875 L 7.203125 -4.421875 Z M 10.9375 -4.421875 "/></g></g></g><g fill="#000000" fill-opacity="1"><g transform="translate(407.717723, 144.90986)"><g><path d="M 8.125 0.234375 C 5.46875 0.234375 3.515625 -0.3125 2.265625 -1.40625 C 1.148438 -2.375 0.59375 -3.691406 0.59375 -5.359375 C 0.59375 -7.023438 1.148438 -8.34375 2.265625 -9.3125 C 3.515625 -10.40625 5.46875 -10.953125 8.125 -10.953125 C 9.675781 -10.953125 10.960938 -10.769531 11.984375 -10.40625 C 13.003906 -10.050781 13.796875 -9.5625 14.359375 -8.9375 C 14.921875 -8.320312 15.296875 -7.617188 15.484375 -6.828125 L 10.734375 -6.828125 C 10.265625 -7.660156 9.394531 -8.078125 8.125 -8.078125 C 7.03125 -8.078125 6.226562 -7.757812 5.71875 -7.125 C 5.3125 -6.632812 5.109375 -6.046875 5.109375 -5.359375 C 5.109375 -4.671875 5.3125 -4.078125 5.71875 -3.578125 C 6.226562 -2.953125 7.03125 -2.640625 8.125 -2.640625 C 9.394531 -2.640625 10.265625 -3.0625 10.734375 -3.90625 L 15.484375 -3.90625 C 15.296875 -3.09375 14.921875 -2.378906 14.359375 -1.765625 C 13.796875 -1.148438 13.003906 -0.660156 11.984375 -0.296875 C 10.960938 0.0546875 9.675781 0.234375 8.125 0.234375 Z M 8.125 0.234375 "/></g></g></g><g fill="#000000" fill-opacity="1"><g transform="translate(423.79429, 144.90986)"><g><path d="M 18.828125 0 L 12.984375 0 L 8.375 -3.59375 L 5.703125 -1.78125 L 5.703125 0 L 1.203125 0 L 1.203125 -10.734375 L 5.703125 -10.734375 L 5.703125 -5.765625 L 12.9375 -10.734375 L 18.828125 -10.734375 L 11.140625 -5.484375 Z M 18.828125 0 "/></g></g></g><g fill="#000000" fill-opacity="1"><g transform="translate(442.737397, 144.90986)"><g><path d="M 18.03125 0 L 13.46875 0 L 12.46875 -1.765625 L 5.6875 -1.765625 L 4.671875 0 L 0.109375 0 L 6.984375 -10.734375 L 11.171875 -10.734375 Z M 10.9375 -4.421875 L 9.078125 -7.671875 L 7.203125 -4.421875 Z M 10.9375 -4.421875 "/></g></g></g><g fill="#000000" fill-opacity="1"><g transform="translate(460.887154, 144.90986)"><g><path d="M 8.125 0.234375 C 5.46875 0.234375 3.515625 -0.3125 2.265625 -1.40625 C 1.148438 -2.375 0.59375 -3.691406 0.59375 -5.359375 C 0.59375 -7.023438 1.148438 -8.34375 2.265625 -9.3125 C 3.515625 -10.40625 5.46875 -10.953125 8.125 -10.953125 C 9.632812 -10.953125 10.890625 -10.78125 11.890625 -10.4375 C 12.890625 -10.101562 13.675781 -9.644531 14.25 -9.0625 C 14.820312 -8.476562 15.210938 -7.800781 15.421875 -7.03125 L 10.609375 -7.03125 C 10.097656 -7.726562 9.269531 -8.078125 8.125 -8.078125 C 7.03125 -8.078125 6.226562 -7.765625 5.71875 -7.140625 C 5.3125 -6.640625 5.109375 -6.046875 5.109375 -5.359375 C 5.109375 -4.671875 5.3125 -4.078125 5.71875 -3.578125 C 6.226562 -2.960938 7.03125 -2.65625 8.125 -2.65625 C 9 -2.65625 9.65625 -2.726562 10.09375 -2.875 C 10.539062 -3.03125 10.863281 -3.226562 11.0625 -3.46875 L 9.3125 -3.46875 L 9.3125 -5.359375 L 15.421875 -5.359375 L 15.421875 0 L 13.546875 0 L 13.171875 -1.03125 C 11.984375 -0.1875 10.300781 0.234375 8.125 0.234375 Z M 8.125 0.234375 "/></g></g></g><g fill="#000000" fill-opacity="1"><g transform="translate(477.210708, 144.90986)"><g><path d="M 5.703125 0 L 1.203125 0 L 1.203125 -10.734375 L 5.703125 -10.734375 Z M 5.703125 0 "/></g></g></g><g fill="#000000" fill-opacity="1"><g transform="translate(484.111357, 144.90986)"><g><path d="M 17.125 0 L 11.765625 0 L 5.703125 -7.265625 L 5.703125 0 L 1.203125 0 L 1.203125 -10.734375 L 6.5625 -10.734375 L 12.625 -3.515625 L 12.625 -10.734375 L 17.125 -10.734375 Z M 17.125 0 "/></g></g></g><g fill="#000000" fill-opacity="1"><g transform="translate(502.44074, 144.90986)"><g><path d="M 8.125 0.234375 C 5.46875 0.234375 3.515625 -0.3125 2.265625 -1.40625 C 1.148438 -2.375 0.59375 -3.691406 0.59375 -5.359375 C 0.59375 -7.023438 1.148438 -8.34375 2.265625 -9.3125 C 3.515625 -10.40625 5.46875 -10.953125 8.125 -10.953125 C 9.632812 -10.953125 10.890625 -10.78125 11.890625 -10.4375 C 12.890625 -10.101562 13.675781 -9.644531 14.25 -9.0625 C 14.820312 -8.476562 15.210938 -7.800781 15.421875 -7.03125 L 10.609375 -7.03125 C 10.097656 -7.726562 9.269531 -8.078125 8.125 -8.078125 C 7.03125 -8.078125 6.226562 -7.765625 5.71875 -7.140625 C 5.3125 -6.640625 5.109375 -6.046875 5.109375 -5.359375 C 5.109375 -4.671875 5.3125 -4.078125 5.71875 -3.578125 C 6.226562 -2.960938 7.03125 -2.65625 8.125 -2.65625 C 9 -2.65625 9.65625 -2.726562 10.09375 -2.875 C 10.539062 -3.03125 10.863281 -3.226562 11.0625 -3.46875 L 9.3125 -3.46875 L 9.3125 -5.359375 L 15.421875 -5.359375 L 15.421875 0 L 13.546875 0 L 13.171875 -1.03125 C 11.984375 -0.1875 10.300781 0.234375 8.125 0.234375 Z M 8.125 0.234375 "/></g></g></g><g fill="#000000" fill-opacity="1"><g transform="translate(541.418642, 123.909861)"><g><path d="M 7.09375 0.234375 C 5.644531 0.234375 4.472656 0.078125 3.578125 -0.234375 C 2.691406 -0.546875 2.015625 -0.972656 1.546875 -1.515625 C 1.085938 -2.066406 0.78125 -2.695312 0.625 -3.40625 L 5.40625 -3.40625 C 5.757812 -2.90625 6.320312 -2.65625 7.09375 -2.65625 C 7.863281 -2.65625 8.425781 -2.90625 8.78125 -3.40625 C 8.8125 -3.457031 8.828125 -3.503906 8.828125 -3.546875 C 8.828125 -3.679688 8.648438 -3.78125 8.296875 -3.84375 C 7.941406 -3.914062 7.410156 -3.96875 6.703125 -4 C 5.804688 -4.039062 4.867188 -4.132812 3.890625 -4.28125 C 1.691406 -4.625 0.59375 -5.507812 0.59375 -6.9375 C 0.59375 -7.050781 0.601562 -7.175781 0.625 -7.3125 C 0.78125 -8.019531 1.085938 -8.644531 1.546875 -9.1875 C 2.015625 -9.738281 2.691406 -10.171875 3.578125 -10.484375 C 4.472656 -10.796875 5.644531 -10.953125 7.09375 -10.953125 C 8.539062 -10.953125 9.707031 -10.796875 10.59375 -10.484375 C 11.488281 -10.171875 12.164062 -9.738281 12.625 -9.1875 C 13.09375 -8.644531 13.40625 -8.019531 13.5625 -7.3125 L 8.78125 -7.3125 C 8.425781 -7.820312 7.863281 -8.078125 7.09375 -8.078125 C 6.320312 -8.078125 5.757812 -7.820312 5.40625 -7.3125 C 5.375 -7.269531 5.359375 -7.234375 5.359375 -7.203125 C 5.359375 -7.078125 5.53125 -6.984375 5.875 -6.921875 C 6.21875 -6.867188 6.722656 -6.820312 7.390625 -6.78125 C 8.054688 -6.75 8.765625 -6.6875 9.515625 -6.59375 C 10.273438 -6.5 10.984375 -6.34375 11.640625 -6.125 C 12.296875 -5.90625 12.804688 -5.578125 13.171875 -5.140625 C 13.460938 -4.804688 13.609375 -4.382812 13.609375 -3.875 C 13.609375 -3.726562 13.59375 -3.570312 13.5625 -3.40625 C 13.40625 -2.695312 13.09375 -2.066406 12.625 -1.515625 C 12.164062 -0.972656 11.488281 -0.546875 10.59375 -0.234375 C 9.707031 0.078125 8.539062 0.234375 7.09375 0.234375 Z M 7.09375 0.234375 "/></g></g></g><g fill="#000000" fill-opacity="1"><g transform="translate(555.624101, 123.909861)"><g><path d="M 18.03125 0 L 13.46875 0 L 12.46875 -1.765625 L 5.6875 -1.765625 L 4.671875 0 L 0.109375 0 L 6.984375 -10.734375 L 11.171875 -10.734375 Z M 10.9375 -4.421875 L 9.078125 -7.671875 L 7.203125 -4.421875 Z M 10.9375 -4.421875 "/></g></g></g><g fill="#000000" fill-opacity="1"><g transform="translate(573.773857, 123.909861)"><g><path d="M 9.15625 0 L 4.65625 0 L 4.65625 -8.078125 L 0.453125 -8.078125 L 0.453125 -10.734375 L 13.375 -10.734375 L 13.375 -8.078125 L 9.15625 -8.078125 Z M 9.15625 0 "/></g></g></g><g fill="#000000" fill-opacity="1"><g transform="translate(587.590125, 123.909861)"><g><path d="M 5.703125 0 L 1.203125 0 L 1.203125 -10.734375 L 5.703125 -10.734375 Z M 5.703125 0 "/></g></g></g><g fill="#000000" fill-opacity="1"><g transform="translate(594.490775, 123.909861)"><g><path d="M 7.09375 0.234375 C 5.644531 0.234375 4.472656 0.078125 3.578125 -0.234375 C 2.691406 -0.546875 2.015625 -0.972656 1.546875 -1.515625 C 1.085938 -2.066406 0.78125 -2.695312 0.625 -3.40625 L 5.40625 -3.40625 C 5.757812 -2.90625 6.320312 -2.65625 7.09375 -2.65625 C 7.863281 -2.65625 8.425781 -2.90625 8.78125 -3.40625 C 8.8125 -3.457031 8.828125 -3.503906 8.828125 -3.546875 C 8.828125 -3.679688 8.648438 -3.78125 8.296875 -3.84375 C 7.941406 -3.914062 7.410156 -3.96875 6.703125 -4 C 5.804688 -4.039062 4.867188 -4.132812 3.890625 -4.28125 C 1.691406 -4.625 0.59375 -5.507812 0.59375 -6.9375 C 0.59375 -7.050781 0.601562 -7.175781 0.625 -7.3125 C 0.78125 -8.019531 1.085938 -8.644531 1.546875 -9.1875 C 2.015625 -9.738281 2.691406 -10.171875 3.578125 -10.484375 C 4.472656 -10.796875 5.644531 -10.953125 7.09375 -10.953125 C 8.539062 -10.953125 9.707031 -10.796875 10.59375 -10.484375 C 11.488281 -10.171875 12.164062 -9.738281 12.625 -9.1875 C 13.09375 -8.644531 13.40625 -8.019531 13.5625 -7.3125 L 8.78125 -7.3125 C 8.425781 -7.820312 7.863281 -8.078125 7.09375 -8.078125 C 6.320312 -8.078125 5.757812 -7.820312 5.40625 -7.3125 C 5.375 -7.269531 5.359375 -7.234375 5.359375 -7.203125 C 5.359375 -7.078125 5.53125 -6.984375 5.875 -6.921875 C 6.21875 -6.867188 6.722656 -6.820312 7.390625 -6.78125 C 8.054688 -6.75 8.765625 -6.6875 9.515625 -6.59375 C 10.273438 -6.5 10.984375 -6.34375 11.640625 -6.125 C 12.296875 -5.90625 12.804688 -5.578125 13.171875 -5.140625 C 13.460938 -4.804688 13.609375 -4.382812 13.609375 -3.875 C 13.609375 -3.726562 13.59375 -3.570312 13.5625 -3.40625 C 13.40625 -2.695312 13.09375 -2.066406 12.625 -1.515625 C 12.164062 -0.972656 11.488281 -0.546875 10.59375 -0.234375 C 9.707031 0.078125 8.539062 0.234375 7.09375 0.234375 Z M 7.09375 0.234375 "/></g></g></g><g fill="#000000" fill-opacity="1"><g transform="translate(608.696234, 123.909861)"><g><path d="M 5.703125 0 L 1.203125 0 L 1.203125 -10.734375 L 13.546875 -10.734375 L 13.546875 -8.078125 L 5.703125 -8.078125 L 5.703125 -6.40625 L 12.328125 -6.40625 L 12.328125 -4.328125 L 5.703125 -4.328125 Z M 5.703125 0 "/></g></g></g><g fill="#000000" fill-opacity="1"><g transform="translate(622.834333, 123.909861)"><g><path d="M 18.03125 0 L 13.46875 0 L 12.46875 -1.765625 L 5.6875 -1.765625 L 4.671875 0 L 0.109375 0 L 6.984375 -10.734375 L 11.171875 -10.734375 Z M 10.9375 -4.421875 L 9.078125 -7.671875 L 7.203125 -4.421875 Z M 10.9375 -4.421875 "/></g></g></g><g fill="#000000" fill-opacity="1"><g transform="translate(640.98409, 123.909861)"><g><path d="M 8.125 0.234375 C 5.46875 0.234375 3.515625 -0.3125 2.265625 -1.40625 C 1.148438 -2.375 0.59375 -3.691406 0.59375 -5.359375 C 0.59375 -7.023438 1.148438 -8.34375 2.265625 -9.3125 C 3.515625 -10.40625 5.46875 -10.953125 8.125 -10.953125 C 9.675781 -10.953125 10.960938 -10.769531 11.984375 -10.40625 C 13.003906 -10.050781 13.796875 -9.5625 14.359375 -8.9375 C 14.921875 -8.320312 15.296875 -7.617188 15.484375 -6.828125 L 10.734375 -6.828125 C 10.265625 -7.660156 9.394531 -8.078125 8.125 -8.078125 C 7.03125 -8.078125 6.226562 -7.757812 5.71875 -7.125 C 5.3125 -6.632812 5.109375 -6.046875 5.109375 -5.359375 C 5.109375 -4.671875 5.3125 -4.078125 5.71875 -3.578125 C 6.226562 -2.953125 7.03125 -2.640625 8.125 -2.640625 C 9.394531 -2.640625 10.265625 -3.0625 10.734375 -3.90625 L 15.484375 -3.90625 C 15.296875 -3.09375 14.921875 -2.378906 14.359375 -1.765625 C 13.796875 -1.148438 13.003906 -0.660156 11.984375 -0.296875 C 10.960938 0.0546875 9.675781 0.234375 8.125 0.234375 Z M 8.125 0.234375 "/></g></g></g><g fill="#000000" fill-opacity="1"><g transform="translate(657.060658, 123.909861)"><g><path d="M 9.15625 0 L 4.65625 0 L 4.65625 -8.078125 L 0.453125 -8.078125 L 0.453125 -10.734375 L 13.375 -10.734375 L 13.375 -8.078125 L 9.15625 -8.078125 Z M 9.15625 0 "/></g></g></g><g fill="#000000" fill-opacity="1"><g transform="translate(670.876926, 123.909861)"><g><path d="M 5.703125 0 L 1.203125 0 L 1.203125 -10.734375 L 5.703125 -10.734375 Z M 5.703125 0 "/></g></g></g><g fill="#000000" fill-opacity="1"><g transform="translate(677.777576, 123.909861)"><g><path d="M 8.125 0.234375 C 5.46875 0.234375 3.515625 -0.3125 2.265625 -1.40625 C 1.148438 -2.375 0.59375 -3.691406 0.59375 -5.359375 C 0.59375 -7.023438 1.148438 -8.34375 2.265625 -9.3125 C 3.515625 -10.40625 5.46875 -10.953125 8.125 -10.953125 C 10.78125 -10.953125 12.734375 -10.40625 13.984375 -9.3125 C 15.085938 -8.34375 15.640625 -7.023438 15.640625 -5.359375 C 15.640625 -3.691406 15.085938 -2.375 13.984375 -1.40625 C 12.734375 -0.3125 10.78125 0.234375 8.125 0.234375 Z M 8.125 -2.65625 C 9.207031 -2.65625 10.003906 -2.960938 10.515625 -3.578125 C 10.921875 -4.085938 11.125 -4.679688 11.125 -5.359375 C 11.125 -6.046875 10.921875 -6.640625 10.515625 -7.140625 C 10.003906 -7.765625 9.207031 -8.078125 8.125 -8.078125 C 7.03125 -8.078125 6.226562 -7.765625 5.71875 -7.140625 C 5.3125 -6.640625 5.109375 -6.046875 5.109375 -5.359375 C 5.109375 -4.679688 5.3125 -4.085938 5.71875 -3.578125 C 6.226562 -2.960938 7.03125 -2.65625 8.125 -2.65625 Z M 8.125 -2.65625 "/></g></g></g><g fill="#000000" fill-opacity="1"><g transform="translate(694.018801, 123.909861)"><g><path d="M 17.125 0 L 11.765625 0 L 5.703125 -7.265625 L 5.703125 0 L 1.203125 0 L 1.203125 -10.734375 L 6.5625 -10.734375 L 12.625 -3.515625 L 12.625 -10.734375 L 17.125 -10.734375 Z M 17.125 0 "/></g></g></g><g fill="#000000" fill-opacity="1"><g transform="translate(545.379579, 144.90986)"><g><path d="M 8.125 0.234375 C 5.46875 0.234375 3.515625 -0.3125 2.265625 -1.40625 C 1.148438 -2.375 0.59375 -3.691406 0.59375 -5.359375 C 0.59375 -7.023438 1.148438 -8.34375 2.265625 -9.3125 C 3.515625 -10.40625 5.46875 -10.953125 8.125 -10.953125 C 9.632812 -10.953125 10.890625 -10.78125 11.890625 -10.4375 C 12.890625 -10.101562 13.675781 -9.644531 14.25 -9.0625 C 14.820312 -8.476562 15.210938 -7.800781 15.421875 -7.03125 L 10.609375 -7.03125 C 10.097656 -7.726562 9.269531 -8.078125 8.125 -8.078125 C 7.03125 -8.078125 6.226562 -7.765625 5.71875 -7.140625 C 5.3125 -6.640625 5.109375 -6.046875 5.109375 -5.359375 C 5.109375 -4.671875 5.3125 -4.078125 5.71875 -3.578125 C 6.226562 -2.960938 7.03125 -2.65625 8.125 -2.65625 C 9 -2.65625 9.65625 -2.726562 10.09375 -2.875 C 10.539062 -3.03125 10.863281 -3.226562 11.0625 -3.46875 L 9.3125 -3.46875 L 9.3125 -5.359375 L 15.421875 -5.359375 L 15.421875 0 L 13.546875 0 L 13.171875 -1.03125 C 11.984375 -0.1875 10.300781 0.234375 8.125 0.234375 Z M 8.125 0.234375 "/></g></g></g><g fill="#000000" fill-opacity="1"><g transform="translate(561.703133, 144.90986)"><g><path d="M 7.546875 0.234375 C 4.929688 0.234375 3.085938 -0.3125 2.015625 -1.40625 C 1.117188 -2.3125 0.671875 -3.628906 0.671875 -5.359375 L 0.671875 -10.734375 L 5.171875 -10.734375 L 5.171875 -5.359375 C 5.171875 -4.609375 5.300781 -4.015625 5.5625 -3.578125 C 5.925781 -2.960938 6.585938 -2.65625 7.546875 -2.65625 C 8.523438 -2.65625 9.191406 -2.960938 9.546875 -3.578125 C 9.804688 -4.035156 9.9375 -4.628906 9.9375 -5.359375 L 9.9375 -10.734375 L 14.4375 -10.734375 L 14.4375 -5.296875 C 14.4375 -3.609375 13.988281 -2.3125 13.09375 -1.40625 C 12.019531 -0.3125 10.171875 0.234375 7.546875 0.234375 Z M 7.546875 0.234375 "/></g></g></g><g fill="#000000" fill-opacity="1"><g transform="translate(576.814209, 144.90986)"><g><path d="M 18.03125 0 L 13.46875 0 L 12.46875 -1.765625 L 5.6875 -1.765625 L 4.671875 0 L 0.109375 0 L 6.984375 -10.734375 L 11.171875 -10.734375 Z M 10.9375 -4.421875 L 9.078125 -7.671875 L 7.203125 -4.421875 Z M 10.9375 -4.421875 "/></g></g></g><g fill="#000000" fill-opacity="1"><g transform="translate(594.963965, 144.90986)"><g><path d="M 15.859375 0 L 11.59375 0 C 11.40625 -0.269531 11.269531 -0.613281 11.1875 -1.03125 C 11.113281 -1.351562 11.007812 -1.671875 10.875 -1.984375 C 10.738281 -2.296875 10.5 -2.554688 10.15625 -2.765625 C 9.8125 -2.972656 9.300781 -3.082031 8.625 -3.09375 L 5.703125 -3.09375 L 5.703125 0 L 1.203125 0 L 1.203125 -10.734375 L 8.53125 -10.734375 C 10.28125 -10.734375 11.691406 -10.601562 12.765625 -10.34375 C 13.835938 -10.082031 14.617188 -9.671875 15.109375 -9.109375 C 15.609375 -8.546875 15.859375 -7.816406 15.859375 -6.921875 C 15.859375 -6.160156 15.6875 -5.523438 15.34375 -5.015625 C 15 -4.503906 14.457031 -4.097656 13.71875 -3.796875 C 14.4375 -3.503906 14.898438 -3.148438 15.109375 -2.734375 C 15.328125 -2.328125 15.457031 -1.875 15.5 -1.375 C 15.550781 -0.9375 15.671875 -0.476562 15.859375 0 Z M 5.703125 -5.75 L 8.28125 -5.75 C 9 -5.75 9.5625 -5.78125 9.96875 -5.84375 C 10.382812 -5.914062 10.691406 -6.003906 10.890625 -6.109375 C 11.085938 -6.222656 11.210938 -6.347656 11.265625 -6.484375 C 11.328125 -6.628906 11.359375 -6.773438 11.359375 -6.921875 C 11.359375 -7.054688 11.328125 -7.191406 11.265625 -7.328125 C 11.210938 -7.472656 11.085938 -7.601562 10.890625 -7.71875 C 10.691406 -7.832031 10.382812 -7.921875 9.96875 -7.984375 C 9.5625 -8.046875 9 -8.078125 8.28125 -8.078125 L 5.703125 -8.078125 Z M 5.703125 -5.75 "/></g></g></g><g fill="#000000" fill-opacity="1"><g transform="translate(611.422239, 144.90986)"><g><path d="M 18.03125 0 L 13.46875 0 L 12.46875 -1.765625 L 5.6875 -1.765625 L 4.671875 0 L 0.109375 0 L 6.984375 -10.734375 L 11.171875 -10.734375 Z M 10.9375 -4.421875 L 9.078125 -7.671875 L 7.203125 -4.421875 Z M 10.9375 -4.421875 "/></g></g></g><g fill="#000000" fill-opacity="1"><g transform="translate(629.571996, 144.90986)"><g><path d="M 17.125 0 L 11.765625 0 L 5.703125 -7.265625 L 5.703125 0 L 1.203125 0 L 1.203125 -10.734375 L 6.5625 -10.734375 L 12.625 -3.515625 L 12.625 -10.734375 L 17.125 -10.734375 Z M 17.125 0 "/></g></g></g><g fill="#000000" fill-opacity="1"><g transform="translate(647.901378, 144.90986)"><g><path d="M 9.15625 0 L 4.65625 0 L 4.65625 -8.078125 L 0.453125 -8.078125 L 0.453125 -10.734375 L 13.375 -10.734375 L 13.375 -8.078125 L 9.15625 -8.078125 Z M 9.15625 0 "/></g></g></g><g fill="#000000" fill-opacity="1"><g transform="translate(661.717646, 144.90986)"><g><path d="M 14.125 0 L 1.203125 0 L 1.203125 -10.734375 L 13.546875 -10.734375 L 13.546875 -8.078125 L 5.703125 -8.078125 L 5.703125 -6.40625 L 12.328125 -6.40625 L 12.328125 -4.328125 L 5.703125 -4.328125 L 5.703125 -2.65625 L 14.125 -2.65625 Z M 14.125 0 "/></g></g></g><g fill="#000000" fill-opacity="1"><g transform="translate(676.447015, 144.90986)"><g><path d="M 14.125 0 L 1.203125 0 L 1.203125 -10.734375 L 13.546875 -10.734375 L 13.546875 -8.078125 L 5.703125 -8.078125 L 5.703125 -6.40625 L 12.328125 -6.40625 L 12.328125 -4.328125 L 5.703125 -4.328125 L 5.703125 -2.65625 L 14.125 -2.65625 Z M 14.125 0 "/></g></g></g><g fill="#000000" fill-opacity="1"><g transform="translate(691.176384, 144.90986)"><g><path d="M 8.375 0 L 1.203125 0 L 1.203125 -10.734375 L 8.375 -10.734375 C 11.320312 -10.734375 13.4375 -10.320312 14.71875 -9.5 C 15.757812 -8.84375 16.351562 -7.941406 16.5 -6.796875 C 16.5625 -6.304688 16.59375 -5.828125 16.59375 -5.359375 C 16.59375 -4.910156 16.5625 -4.4375 16.5 -3.9375 C 16.4375 -3.445312 16.269531 -2.96875 16 -2.5 C 15.726562 -2.03125 15.300781 -1.609375 14.71875 -1.234375 C 14.132812 -0.859375 13.332031 -0.554688 12.3125 -0.328125 C 11.289062 -0.109375 9.976562 0 8.375 0 Z M 7.953125 -2.65625 C 10.242188 -2.65625 11.539062 -3.234375 11.84375 -4.390625 C 11.914062 -4.710938 11.953125 -5.035156 11.953125 -5.359375 C 11.953125 -5.691406 11.910156 -6.019531 11.828125 -6.34375 C 11.753906 -6.664062 11.582031 -6.957031 11.3125 -7.21875 C 11.039062 -7.476562 10.640625 -7.6875 10.109375 -7.84375 C 9.578125 -8 8.859375 -8.078125 7.953125 -8.078125 L 5.703125 -8.078125 L 5.703125 -2.65625 Z M 7.953125 -2.65625 "/></g></g></g></svg>